G04*
G04 #@! TF.GenerationSoftware,Altium Limited,Altium Designer,18.1.6 (161)*
G04*
G04 Layer_Color=2752767*
%FSTAX24Y24*%
%MOIN*%
G70*
G01*
G75*
%ADD102C,0.0020*%
%ADD103C,0.0027*%
D102*
X037794Y026711D02*
Y026871D01*
X037954D01*
Y026711D01*
X037794D01*
X040747D02*
Y026871D01*
X040907D01*
Y026711D01*
X040747D01*
X011631Y022408D02*
X011551Y022568D01*
X011711D01*
X011631Y022408D01*
Y024408D02*
X011551Y024568D01*
X011711D01*
X011631Y024408D01*
X043248Y014668D02*
X043288Y014708D01*
X043328D01*
X043288Y014748D01*
X043328Y014788D01*
X043288D01*
X043248Y014828D01*
X043208Y014788D01*
X043168D01*
X043208Y014748D01*
X043168Y014708D01*
X043208D01*
X043248Y014668D01*
Y015668D02*
X043288Y015708D01*
X043328D01*
X043288Y015748D01*
X043328Y015788D01*
X043288D01*
X043248Y015828D01*
X043208Y015788D01*
X043168D01*
X043208Y015748D01*
X043168Y015708D01*
X043208D01*
X043248Y015668D01*
Y016668D02*
X043288Y016708D01*
X043328D01*
X043288Y016748D01*
X043328Y016788D01*
X043288D01*
X043248Y016828D01*
X043208Y016788D01*
X043168D01*
X043208Y016748D01*
X043168Y016708D01*
X043208D01*
X043248Y016668D01*
X040295D02*
X040335Y016708D01*
X040375D01*
X040335Y016748D01*
X040375Y016788D01*
X040335D01*
X040295Y016828D01*
X040255Y016788D01*
X040215D01*
X040255Y016748D01*
X040215Y016708D01*
X040255D01*
X040295Y016668D01*
Y015668D02*
X040335Y015708D01*
X040375D01*
X040335Y015748D01*
X040375Y015788D01*
X040335D01*
X040295Y015828D01*
X040255Y015788D01*
X040215D01*
X040255Y015748D01*
X040215Y015708D01*
X040255D01*
X040295Y015668D01*
Y014668D02*
X040335Y014708D01*
X040375D01*
X040335Y014748D01*
X040375Y014788D01*
X040335D01*
X040295Y014828D01*
X040255Y014788D01*
X040215D01*
X040255Y014748D01*
X040215Y014708D01*
X040255D01*
X040295Y014668D01*
X043209Y019329D02*
X043249Y019369D01*
X043289D01*
X043249Y019409D01*
X043289Y019449D01*
X043249D01*
X043209Y019489D01*
X043169Y019449D01*
X043129D01*
X043169Y019409D01*
X043129Y019369D01*
X043169D01*
X043209Y019329D01*
Y020329D02*
X043249Y020369D01*
X043289D01*
X043249Y020409D01*
X043289Y020449D01*
X043249D01*
X043209Y020489D01*
X043169Y020449D01*
X043129D01*
X043169Y020409D01*
X043129Y020369D01*
X043169D01*
X043209Y020329D01*
Y021329D02*
X043249Y021369D01*
X043289D01*
X043249Y021409D01*
X043289Y021449D01*
X043249D01*
X043209Y021489D01*
X043169Y021449D01*
X043129D01*
X043169Y021409D01*
X043129Y021369D01*
X043169D01*
X043209Y021329D01*
X040295Y021357D02*
X040335Y021397D01*
X040375D01*
X040335Y021437D01*
X040375Y021477D01*
X040335D01*
X040295Y021517D01*
X040255Y021477D01*
X040215D01*
X040255Y021437D01*
X040215Y021397D01*
X040255D01*
X040295Y021357D01*
Y020357D02*
X040335Y020397D01*
X040375D01*
X040335Y020437D01*
X040375Y020477D01*
X040335D01*
X040295Y020517D01*
X040255Y020477D01*
X040215D01*
X040255Y020437D01*
X040215Y020397D01*
X040255D01*
X040295Y020357D01*
Y019357D02*
X040335Y019397D01*
X040375D01*
X040335Y019437D01*
X040375Y019477D01*
X040335D01*
X040295Y019517D01*
X040255Y019477D01*
X040215D01*
X040255Y019437D01*
X040215Y019397D01*
X040255D01*
X040295Y019357D01*
X011455Y030876D02*
X011495Y030956D01*
X011455Y031036D01*
X011535Y030996D01*
X011615Y031036D01*
X011575Y030956D01*
X011615Y030876D01*
X011535Y030916D01*
X011455Y030876D01*
Y029866D02*
X011495Y029946D01*
X011455Y030026D01*
X011535Y029986D01*
X011615Y030026D01*
X011575Y029946D01*
X011615Y029866D01*
X011535Y029906D01*
X011455Y029866D01*
Y028886D02*
X011495Y028966D01*
X011455Y029046D01*
X011535Y029006D01*
X011615Y029046D01*
X011575Y028966D01*
X011615Y028886D01*
X011535Y028926D01*
X011455Y028886D01*
Y027876D02*
X011495Y027956D01*
X011455Y028036D01*
X011535Y027996D01*
X011615Y028036D01*
X011575Y027956D01*
X011615Y027876D01*
X011535Y027916D01*
X011455Y027876D01*
X038736Y03236D02*
Y03232D01*
X038816D01*
Y03236D01*
X038856D01*
Y03244D01*
X038816D01*
Y03248D01*
X038736D01*
Y03244D01*
X038696D01*
Y03236D01*
X038736D01*
X039736D02*
Y03232D01*
X039816D01*
Y03236D01*
X039856D01*
Y03244D01*
X039816D01*
Y03248D01*
X039736D01*
Y03244D01*
X039696D01*
Y03236D01*
X039736D01*
X040786D02*
Y03232D01*
X040866D01*
Y03236D01*
X040906D01*
Y03244D01*
X040866D01*
Y03248D01*
X040786D01*
Y03244D01*
X040746D01*
Y03236D01*
X040786D01*
X0355D02*
Y03232D01*
X03558D01*
Y03236D01*
X03562D01*
Y03244D01*
X03558D01*
Y03248D01*
X0355D01*
Y03244D01*
X03546D01*
Y03236D01*
X0355D01*
X0365D02*
Y03232D01*
X03658D01*
Y03236D01*
X03662D01*
Y03244D01*
X03658D01*
Y03248D01*
X0365D01*
Y03244D01*
X03646D01*
Y03236D01*
X0365D01*
X03231D02*
Y03232D01*
X03239D01*
Y03236D01*
X03243D01*
Y03244D01*
X03239D01*
Y03248D01*
X03231D01*
Y03244D01*
X03227D01*
Y03236D01*
X03231D01*
X03331D02*
Y03232D01*
X03339D01*
Y03236D01*
X03343D01*
Y03244D01*
X03339D01*
Y03248D01*
X03331D01*
Y03244D01*
X03327D01*
Y03236D01*
X03331D01*
X02906Y032374D02*
Y032334D01*
X02914D01*
Y032374D01*
X02918D01*
Y032454D01*
X02914D01*
Y032494D01*
X02906D01*
Y032454D01*
X02902D01*
Y032374D01*
X02906D01*
X03006D02*
Y032334D01*
X03014D01*
Y032374D01*
X03018D01*
Y032454D01*
X03014D01*
Y032494D01*
X03006D01*
Y032454D01*
X03002D01*
Y032374D01*
X03006D01*
X02686Y03241D02*
Y03237D01*
X02694D01*
Y03241D01*
X02698D01*
Y03249D01*
X02694D01*
Y03253D01*
X02686D01*
Y03249D01*
X02682D01*
Y03241D01*
X02686D01*
X02581D02*
Y03237D01*
X02589D01*
Y03241D01*
X02593D01*
Y03249D01*
X02589D01*
Y03253D01*
X02581D01*
Y03249D01*
X02577D01*
Y03241D01*
X02581D01*
X02481D02*
Y03237D01*
X02489D01*
Y03241D01*
X02493D01*
Y03249D01*
X02489D01*
Y03253D01*
X02481D01*
Y03249D01*
X02477D01*
Y03241D01*
X02481D01*
X02056Y03246D02*
Y03242D01*
X02064D01*
Y03246D01*
X02068D01*
Y03254D01*
X02064D01*
Y03258D01*
X02056D01*
Y03254D01*
X02052D01*
Y03246D01*
X02056D01*
X02156D02*
Y03242D01*
X02164D01*
Y03246D01*
X02168D01*
Y03254D01*
X02164D01*
Y03258D01*
X02156D01*
Y03254D01*
X02152D01*
Y03246D01*
X02156D01*
X02261D02*
Y03242D01*
X02269D01*
Y03246D01*
X02273D01*
Y03254D01*
X02269D01*
Y03258D01*
X02261D01*
Y03254D01*
X02257D01*
Y03246D01*
X02261D01*
X016312D02*
Y03242D01*
X016392D01*
Y03246D01*
X016432D01*
Y03254D01*
X016392D01*
Y03258D01*
X016312D01*
Y03254D01*
X016272D01*
Y03246D01*
X016312D01*
X017312D02*
Y03242D01*
X017392D01*
Y03246D01*
X017432D01*
Y03254D01*
X017392D01*
Y03258D01*
X017312D01*
Y03254D01*
X017272D01*
Y03246D01*
X017312D01*
X018362D02*
Y03242D01*
X018442D01*
Y03246D01*
X018482D01*
Y03254D01*
X018442D01*
Y03258D01*
X018362D01*
Y03254D01*
X018322D01*
Y03246D01*
X018362D01*
X028455Y014888D02*
X028375Y015048D01*
X028535D01*
X028455Y014888D01*
Y015888D02*
X028375Y016048D01*
X028535D01*
X028455Y015888D01*
X025455D02*
X025375Y016048D01*
X025535D01*
X025455Y015888D01*
Y014888D02*
X025375Y015048D01*
X025535D01*
X025455Y014888D01*
X024205D02*
X024125Y015048D01*
X024285D01*
X024205Y014888D01*
Y015888D02*
X024125Y016048D01*
X024285D01*
X024205Y015888D01*
X021205D02*
X021125Y016048D01*
X021285D01*
X021205Y015888D01*
Y014888D02*
X021125Y015048D01*
X021285D01*
X021205Y014888D01*
X019955Y014938D02*
X019875Y015098D01*
X020035D01*
X019955Y014938D01*
Y015938D02*
X019875Y016098D01*
X020035D01*
X019955Y015938D01*
X016955D02*
X016875Y016098D01*
X017035D01*
X016955Y015938D01*
Y014938D02*
X016875Y015098D01*
X017035D01*
X016955Y014938D01*
X015605D02*
X015525Y015098D01*
X015685D01*
X015605Y014938D01*
Y015938D02*
X015525Y016098D01*
X015685D01*
X015605Y015938D01*
X012605D02*
X012525Y016098D01*
X012685D01*
X012605Y015938D01*
Y014938D02*
X012525Y015098D01*
X012685D01*
X012605Y014938D01*
X030875Y0218D02*
X030915D01*
X030955Y02184D01*
X030995Y0218D01*
X031035D01*
Y02184D01*
X030995Y02188D01*
X031035Y02192D01*
Y02196D01*
X030995D01*
X030955Y02192D01*
X030915Y02196D01*
X030875D01*
Y02192D01*
X030915Y02188D01*
X030875Y02184D01*
Y0218D01*
X03679Y020492D02*
X03687Y020572D01*
X03695Y020492D01*
X03687Y020412D01*
X03679Y020492D01*
X046514Y023975D02*
X046554D01*
X046594Y024015D01*
X046634Y023975D01*
X046674D01*
Y024015D01*
X046634Y024055D01*
X046674Y024095D01*
Y024135D01*
X046634D01*
X046594Y024095D01*
X046554Y024135D01*
X046514D01*
Y024095D01*
X046554Y024055D01*
X046514Y024015D01*
Y023975D01*
X046426Y024753D02*
X046466D01*
X046506Y024793D01*
X046546Y024753D01*
X046586D01*
Y024793D01*
X046546Y024833D01*
X046586Y024873D01*
Y024913D01*
X046546D01*
X046506Y024873D01*
X046466Y024913D01*
X046426D01*
Y024873D01*
X046466Y024833D01*
X046426Y024793D01*
Y024753D01*
X025678Y027589D02*
X025758Y027669D01*
X025838Y027589D01*
X025758Y027509D01*
X025678Y027589D01*
X046042Y028839D02*
X046122Y028919D01*
X046202Y028839D01*
X046122Y028759D01*
X046042Y028839D01*
X046032Y029163D02*
X046112Y029243D01*
X046192Y029163D01*
X046112Y029083D01*
X046032Y029163D01*
X020816Y022667D02*
X020896Y022747D01*
X020976Y022667D01*
X020896Y022587D01*
X020816Y022667D01*
Y02301D02*
X020896Y023091D01*
X020976Y02301D01*
X020896Y022931D01*
X020816Y02301D01*
Y023354D02*
X020896Y023434D01*
X020976Y023354D01*
X020896Y023274D01*
X020816Y023354D01*
Y023697D02*
X020896Y023777D01*
X020976Y023697D01*
X020896Y023617D01*
X020816Y023697D01*
Y02404D02*
X020896Y02412D01*
X020976Y02404D01*
X020896Y02396D01*
X020816Y02404D01*
Y024383D02*
X020896Y024463D01*
X020976Y024383D01*
X020896Y024303D01*
X020816Y024383D01*
X01368Y02486D02*
X01376Y02494D01*
X01384Y02486D01*
X01376Y02478D01*
X01368Y02486D01*
X014064D02*
X014144Y02494D01*
X014224Y02486D01*
X014144Y02478D01*
X014064Y02486D01*
X014448D02*
X014528Y02494D01*
X014608Y02486D01*
X014528Y02478D01*
X014448Y02486D01*
X046377Y028839D02*
X046457Y028919D01*
X046537Y028839D01*
X046457Y028759D01*
X046377Y028839D01*
Y029173D02*
X046457Y029253D01*
X046537Y029173D01*
X046457Y029093D01*
X046377Y029173D01*
X046701Y028839D02*
X046782Y028919D01*
X046862Y028839D01*
X046782Y028759D01*
X046701Y028839D01*
Y029173D02*
X046782Y029253D01*
X046862Y029173D01*
X046782Y029093D01*
X046701Y029173D01*
X047026Y028839D02*
X047106Y028919D01*
X047186Y028839D01*
X047106Y028759D01*
X047026Y028839D01*
Y029173D02*
X047106Y029253D01*
X047186Y029173D01*
X047106Y029093D01*
X047026Y029173D01*
X045107Y023906D02*
X045147D01*
X045187Y023946D01*
X045227Y023906D01*
X045267D01*
Y023946D01*
X045227Y023986D01*
X045267Y024026D01*
Y024066D01*
X045227D01*
X045187Y024026D01*
X045147Y024066D01*
X045107D01*
Y024026D01*
X045147Y023986D01*
X045107Y023946D01*
Y023906D01*
X045098Y024684D02*
X045138D01*
X045178Y024724D01*
X045218Y024684D01*
X045258D01*
Y024724D01*
X045218Y024764D01*
X045258Y024804D01*
Y024844D01*
X045218D01*
X045178Y024804D01*
X045138Y024844D01*
X045098D01*
Y024804D01*
X045138Y024764D01*
X045098Y024724D01*
Y024684D01*
X045826Y023906D02*
X045866D01*
X045906Y023946D01*
X045946Y023906D01*
X045986D01*
Y023946D01*
X045946Y023986D01*
X045986Y024026D01*
Y024066D01*
X045946D01*
X045906Y024026D01*
X045866Y024066D01*
X045826D01*
Y024026D01*
X045866Y023986D01*
X045826Y023946D01*
Y023906D01*
X045807Y024684D02*
X045847D01*
X045887Y024724D01*
X045927Y024684D01*
X045967D01*
Y024724D01*
X045927Y024764D01*
X045967Y024804D01*
Y024844D01*
X045927D01*
X045887Y024804D01*
X045847Y024844D01*
X045807D01*
Y024804D01*
X045847Y024764D01*
X045807Y024724D01*
Y024684D01*
X047617Y027215D02*
X047697Y027295D01*
X047777Y027215D01*
X047697Y027135D01*
X047617Y027215D01*
Y026988D02*
X047697Y027068D01*
X047777Y026988D01*
X047697Y026908D01*
X047617Y026988D01*
X020816Y024726D02*
X020896Y024806D01*
X020976Y024726D01*
X020896Y024646D01*
X020816Y024726D01*
X029753Y025187D02*
X029833Y025267D01*
X029913Y025187D01*
X029833Y025107D01*
X029753Y025187D01*
X029295Y016575D02*
X029375Y016655D01*
X029455Y016575D01*
X029375Y016495D01*
X029295Y016575D01*
X023335Y025925D02*
X023415Y026005D01*
X023495Y025925D01*
X023415Y025845D01*
X023335Y025925D01*
X021455Y025689D02*
X021535Y025769D01*
X021615Y025689D01*
X021535Y025609D01*
X021455Y025689D01*
X013122Y026939D02*
X013202Y027019D01*
X013282Y026939D01*
X013202Y026859D01*
X013122Y026939D01*
X012105Y024882D02*
X012185Y024962D01*
X012265Y024882D01*
X012185Y024802D01*
X012105Y024882D01*
X022125Y03064D02*
X022205Y03072D01*
X022285Y03064D01*
X022205Y03056D01*
X022125Y03064D01*
X02026Y026467D02*
X02034Y026547D01*
X02042Y026467D01*
X02034Y026387D01*
X02026Y026467D01*
X02118Y027943D02*
X02126Y028023D01*
X02134Y027943D01*
X02126Y027863D01*
X02118Y027943D01*
X021101Y028455D02*
X021181Y028535D01*
X021261Y028455D01*
X021181Y028375D01*
X021101Y028455D01*
X028386Y025647D02*
X028426D01*
X028466Y025687D01*
X028506Y025647D01*
X028546D01*
Y025687D01*
X028506Y025727D01*
X028546Y025767D01*
Y025807D01*
X028506D01*
X028466Y025767D01*
X028426Y025807D01*
X028386D01*
Y025767D01*
X028426Y025727D01*
X028386Y025687D01*
Y025647D01*
X032205Y025688D02*
X032245D01*
X032285Y025728D01*
X032325Y025688D01*
X032365D01*
Y025728D01*
X032325Y025768D01*
X032365Y025808D01*
Y025848D01*
X032325D01*
X032285Y025808D01*
X032245Y025848D01*
X032205D01*
Y025808D01*
X032245Y025768D01*
X032205Y025728D01*
Y025688D01*
X012105Y026815D02*
X012185Y026895D01*
X012265Y026815D01*
X012185Y026735D01*
X012105Y026815D01*
X027777Y014202D02*
X027817D01*
X027857Y014241D01*
X027897Y014202D01*
X027937D01*
Y014241D01*
X027897Y014282D01*
X027937Y014322D01*
Y014361D01*
X027897D01*
X027857Y014322D01*
X027817Y014361D01*
X027777D01*
Y014322D01*
X027817Y014282D01*
X027777Y014241D01*
Y014202D01*
X023709Y014142D02*
X023749D01*
X023789Y014182D01*
X023829Y014142D01*
X023869D01*
Y014182D01*
X023829Y014222D01*
X023869Y014262D01*
Y014302D01*
X023829D01*
X023789Y014262D01*
X023749Y014302D01*
X023709D01*
Y014262D01*
X023749Y014222D01*
X023709Y014182D01*
Y014142D01*
X019389Y014162D02*
X019428D01*
X019468Y014202D01*
X019509Y014162D01*
X019548D01*
Y014202D01*
X019509Y014242D01*
X019548Y014282D01*
Y014322D01*
X019509D01*
X019468Y014282D01*
X019428Y014322D01*
X019389D01*
Y014282D01*
X019428Y014242D01*
X019389Y014202D01*
Y014162D01*
X015095Y014014D02*
X015135D01*
X015175Y014054D01*
X015215Y014014D01*
X015255D01*
Y014054D01*
X015215Y014094D01*
X015255Y014134D01*
Y014174D01*
X015215D01*
X015175Y014134D01*
X015135Y014174D01*
X015095D01*
Y014134D01*
X015135Y014094D01*
X015095Y014054D01*
Y014014D01*
X03767Y014314D02*
X03771D01*
X03775Y014354D01*
X03779Y014314D01*
X03783D01*
Y014354D01*
X03779Y014394D01*
X03783Y014434D01*
Y014474D01*
X03779D01*
X03775Y014434D01*
X03771Y014474D01*
X03767D01*
Y014434D01*
X03771Y014394D01*
X03767Y014354D01*
Y014314D01*
X038217Y017902D02*
X038257D01*
X038297Y017942D01*
X038337Y017902D01*
X038377D01*
Y017942D01*
X038337Y017982D01*
X038377Y018022D01*
Y018062D01*
X038337D01*
X038297Y018022D01*
X038257Y018062D01*
X038217D01*
Y018022D01*
X038257Y017982D01*
X038217Y017942D01*
Y017902D01*
X03741Y017736D02*
X03749Y017816D01*
X03757Y017736D01*
X03749Y017656D01*
X03741Y017736D01*
X031987Y026485D02*
X032027D01*
X032067Y026525D01*
X032107Y026485D01*
X032147D01*
Y026525D01*
X032107Y026565D01*
X032147Y026605D01*
Y026645D01*
X032107D01*
X032067Y026605D01*
X032027Y026645D01*
X031987D01*
Y026605D01*
X032027Y026565D01*
X031987Y026525D01*
Y026485D01*
X031574Y031004D02*
X031654Y031084D01*
X031734Y031004D01*
X031654Y030924D01*
X031574Y031004D01*
X032479Y01435D02*
X032559Y01443D01*
X032639Y01435D01*
X032559Y01427D01*
X032479Y01435D01*
X036101Y014014D02*
X036141D01*
X036181Y014054D01*
X036221Y014014D01*
X036261D01*
Y014054D01*
X036221Y014094D01*
X036261Y014134D01*
Y014174D01*
X036221D01*
X036181Y014134D01*
X036141Y014174D01*
X036101D01*
Y014134D01*
X036141Y014094D01*
X036101Y014054D01*
Y014014D01*
X043355Y011211D02*
X043435Y011291D01*
X043515Y011211D01*
X043435Y011131D01*
X043355Y011211D01*
X025235Y020945D02*
X025315Y021025D01*
X025395Y020945D01*
X025315Y020865D01*
X025235Y020945D01*
X02054D02*
X02062Y021025D01*
X0207Y020945D01*
X02062Y020865D01*
X02054Y020945D01*
X015845Y020876D02*
X015925Y020956D01*
X016005Y020876D01*
X015925Y020796D01*
X015845Y020876D01*
X01115Y021181D02*
X01123Y021261D01*
X01131Y021181D01*
X01123Y021101D01*
X01115Y021181D01*
X027922Y02063D02*
X028002Y02071D01*
X028082Y02063D01*
X028002Y02055D01*
X027922Y02063D01*
X01976Y025908D02*
X01984Y025988D01*
X01992Y025908D01*
X01984Y025828D01*
X01976Y025908D01*
X014585Y030472D02*
X014665Y030552D01*
X014745Y030472D01*
X014665Y030392D01*
X014585Y030472D01*
X019507Y03064D02*
X019587Y03072D01*
X019667Y03064D01*
X019587Y03056D01*
X019507Y03064D01*
X014556Y026949D02*
X014636Y027029D01*
X014716Y026949D01*
X014636Y026869D01*
X014556Y026949D01*
X034457Y027224D02*
X034537Y027304D01*
X034617Y027224D01*
X034537Y027144D01*
X034457Y027224D01*
X03348Y027037D02*
X03356Y027117D01*
X03364Y027037D01*
X03356Y026957D01*
X03348Y027037D01*
X026337Y014093D02*
X026377D01*
X026417Y014133D01*
X026457Y014093D01*
X026497D01*
Y014133D01*
X026457Y014173D01*
X026497Y014213D01*
Y014253D01*
X026457D01*
X026417Y014213D01*
X026377Y014253D01*
X026337D01*
Y014213D01*
X026377Y014173D01*
X026337Y014133D01*
Y014093D01*
X022007Y014044D02*
X022047D01*
X022087Y014084D01*
X022127Y014044D01*
X022167D01*
Y014084D01*
X022127Y014124D01*
X022167Y014164D01*
Y014204D01*
X022127D01*
X022087Y014164D01*
X022047Y014204D01*
X022007D01*
Y014164D01*
X022047Y014124D01*
X022007Y014084D01*
Y014044D01*
X023275Y020364D02*
X023355Y020444D01*
X023435Y020364D01*
X023355Y020284D01*
X023275Y020364D01*
X018649Y020285D02*
X018729Y020365D01*
X018809Y020285D01*
X018729Y020205D01*
X018649Y020285D01*
X013914Y020295D02*
X013994Y020375D01*
X014074Y020295D01*
X013994Y020215D01*
X013914Y020295D01*
X017577Y014054D02*
X017617D01*
X017657Y014094D01*
X017697Y014054D01*
X017737D01*
Y014094D01*
X017697Y014134D01*
X017737Y014174D01*
Y014214D01*
X017697D01*
X017657Y014174D01*
X017617Y014214D01*
X017577D01*
Y014174D01*
X017617Y014134D01*
X017577Y014094D01*
Y014054D01*
X013345Y014083D02*
X013385D01*
X013425Y014123D01*
X013465Y014083D01*
X013505D01*
Y014123D01*
X013465Y014163D01*
X013505Y014203D01*
Y014243D01*
X013465D01*
X013425Y014203D01*
X013385Y014243D01*
X013345D01*
Y014203D01*
X013385Y014163D01*
X013345Y014123D01*
Y014083D01*
X017637Y03127D02*
X017717Y03135D01*
X017797Y03127D01*
X017717Y03119D01*
X017637Y03127D01*
X019261Y033396D02*
X019341Y033476D01*
X019421Y033396D01*
X019341Y033316D01*
X019261Y033396D01*
X011121Y025984D02*
X011201Y026064D01*
X011281Y025984D01*
X011201Y025904D01*
X011121Y025984D01*
X016907D02*
X016987Y026064D01*
X017067Y025984D01*
X016987Y025904D01*
X016907Y025984D01*
X025865Y022322D02*
X025905D01*
X025945Y022362D01*
X025985Y022322D01*
X026025D01*
Y022362D01*
X025985Y022402D01*
X026025Y022442D01*
Y022482D01*
X025985D01*
X025945Y022442D01*
X025905Y022482D01*
X025865D01*
Y022442D01*
X025905Y022402D01*
X025865Y022362D01*
Y022322D01*
X027194Y024103D02*
X027234D01*
X027274Y024143D01*
X027314Y024103D01*
X027354D01*
Y024143D01*
X027314Y024183D01*
X027354Y024223D01*
Y024263D01*
X027314D01*
X027274Y024223D01*
X027234Y024263D01*
X027194D01*
Y024223D01*
X027234Y024183D01*
X027194Y024143D01*
Y024103D01*
X04832Y03257D02*
Y03273D01*
X04848D01*
Y03257D01*
X04832D01*
X04836Y03261D02*
Y03269D01*
X04844D01*
Y03261D01*
X04836D01*
X048306Y010905D02*
Y011065D01*
X048466D01*
Y010905D01*
X048306D01*
X048346Y010945D02*
Y011025D01*
X048426D01*
Y010945D01*
X048346D01*
X01082Y01092D02*
Y01108D01*
X01098D01*
Y01092D01*
X01082D01*
X01086Y01096D02*
Y01104D01*
X01094D01*
Y01096D01*
X01086D01*
X01082Y03257D02*
Y03273D01*
X01098D01*
Y03257D01*
X01082D01*
X01086Y03261D02*
Y03269D01*
X01094D01*
Y03261D01*
X01086D01*
D103*
X032805Y01185D02*
G03*
X032805Y01185I-00008J0D01*
G01*
X030805D02*
G03*
X030805Y01185I-00008J0D01*
G01*
X028455Y011851D02*
G03*
X028455Y011851I-00008J0D01*
G01*
X026455D02*
G03*
X026455Y011851I-00008J0D01*
G01*
X043505Y032343D02*
G03*
X043505Y032343I-00008J0D01*
G01*
X045505D02*
G03*
X045505Y032343I-00008J0D01*
G01*
X024125Y01189D02*
G03*
X024125Y01189I-00008J0D01*
G01*
X022125D02*
G03*
X022125Y01189I-00008J0D01*
G01*
X019795Y011851D02*
G03*
X019795Y011851I-00008J0D01*
G01*
X017795D02*
G03*
X017795Y011851I-00008J0D01*
G01*
X015465Y011811D02*
G03*
X015465Y011811I-00008J0D01*
G01*
X013465D02*
G03*
X013465Y011811I-00008J0D01*
G01*
M02*
