G04*
G04 #@! TF.GenerationSoftware,Altium Limited,Altium Designer,18.1.6 (161)*
G04*
G04 Layer_Color=32768*
%FSTAX24Y24*%
%MOIN*%
G70*
G01*
G75*
%ADD11C,0.0050*%
%ADD100C,0.0039*%
%ADD101C,0.0020*%
D11*
X035778Y023268D02*
Y026063D01*
X037549D01*
Y023268D02*
Y026063D01*
X035778Y023268D02*
X037549D01*
X045719Y030296D02*
X049419D01*
X045719Y027696D02*
Y030296D01*
Y027696D02*
X049419D01*
Y030296D01*
X047569Y028878D02*
Y029114D01*
X047451Y028996D02*
X047687D01*
D100*
X037648Y012461D02*
X038041D01*
X037844Y012264D02*
Y012657D01*
X0319Y029951D02*
Y03058D01*
X033002Y029951D02*
Y03058D01*
X0319D02*
X033002D01*
X0319Y029951D02*
X033002D01*
X032254Y030265D02*
X032648D01*
X032451Y030069D02*
Y030462D01*
X045593Y011388D02*
X045987D01*
X04579Y011191D02*
Y011585D01*
X047441Y025709D02*
Y026339D01*
X048543Y025709D02*
Y026339D01*
X047441D02*
X048543D01*
X047441Y025709D02*
X048543D01*
X047795Y026024D02*
X048189D01*
X047992Y025827D02*
Y02622D01*
X033622Y019587D02*
Y01998D01*
X033425Y019783D02*
X033819D01*
X03421Y025551D02*
Y025945D01*
X034013Y025748D02*
X034407D01*
X047733Y021457D02*
X048127D01*
X04793Y021261D02*
Y021654D01*
X032283Y02378D02*
Y024173D01*
X032087Y023976D02*
X03248D01*
X030807Y022894D02*
X03376D01*
X030807Y025059D02*
X03376D01*
Y022894D02*
Y025059D01*
X030807Y022894D02*
Y025059D01*
X028947Y019646D02*
X029341D01*
X029144Y019449D02*
Y019843D01*
X024225Y019646D02*
X024619D01*
X024422Y019449D02*
Y019843D01*
X033317Y02962D02*
X033711D01*
X033514Y029423D02*
Y029816D01*
X033829Y029068D02*
Y030171D01*
X033199Y029068D02*
Y030171D01*
X033829D01*
X033199Y029068D02*
X033829D01*
X047992Y026939D02*
Y027333D01*
X047795Y027136D02*
X048189D01*
X047441Y026821D02*
X048543D01*
X047441Y027451D02*
X048543D01*
Y026821D02*
Y027451D01*
X047441Y026821D02*
Y027451D01*
X027205Y025727D02*
X027598D01*
X027402Y02553D02*
Y025924D01*
X022979Y013521D02*
X023372D01*
X023176Y013324D02*
Y013718D01*
X018553Y013521D02*
X018947D01*
X01875Y013324D02*
Y013718D01*
X0197Y019449D02*
Y019843D01*
X019503Y019646D02*
X019897D01*
X014979Y019449D02*
Y019843D01*
X014782Y019646D02*
X015175D01*
X026958Y013521D02*
X027352D01*
X027155Y013324D02*
Y013718D01*
X014464Y013521D02*
X014858D01*
X014661Y013324D02*
Y013718D01*
X024075Y022894D02*
Y025059D01*
X027028Y022894D02*
Y025059D01*
X024075D02*
X027028D01*
X024075Y022894D02*
X027028D01*
X025354Y023976D02*
X025748D01*
X025551Y02378D02*
Y024173D01*
D101*
X01557Y026352D02*
X018042D01*
Y026888D01*
X018322D01*
Y027167D01*
X018857D01*
Y02964D01*
X018322D02*
X018857D01*
X018322D02*
Y029919D01*
X018042D02*
X018322D01*
X018042D02*
Y030455D01*
X01557D02*
X018042D01*
X01557Y029919D02*
Y030455D01*
X01529Y029919D02*
X01557D01*
X01529Y02964D02*
Y029919D01*
X014755Y02964D02*
X01529D01*
X014755Y027167D02*
Y02964D01*
Y027167D02*
X01529D01*
Y026888D02*
Y027167D01*
Y026888D02*
X01557D01*
Y026352D02*
Y026888D01*
X03686Y011998D02*
Y012923D01*
X038829Y011998D02*
Y012923D01*
X03686D02*
X038829D01*
X03686Y011998D02*
X038829D01*
X044806Y010925D02*
Y01185D01*
X046774Y010925D02*
Y01185D01*
X044806D02*
X046774D01*
X044806Y010925D02*
X046774D01*
X015128Y022372D02*
X019813D01*
X015128D02*
Y022923D01*
X014419D02*
X015128D01*
X014419D02*
Y023907D01*
X015128D01*
Y024459D01*
X019813D01*
Y023907D02*
Y024459D01*
Y023907D02*
X020522D01*
Y022923D02*
Y023907D01*
X019813Y022923D02*
X020522D01*
X019813Y022372D02*
Y022923D01*
X033159Y018799D02*
X034085D01*
X033159Y020768D02*
X034085D01*
X033159Y018799D02*
Y020768D01*
X034085Y018799D02*
Y020768D01*
X033541Y026083D02*
X034879D01*
X033541Y025413D02*
X034879D01*
X033541D02*
Y026083D01*
X034879Y025413D02*
Y026083D01*
X046946Y020995D02*
Y02192D01*
X048915Y020995D02*
Y02192D01*
X046946D02*
X048915D01*
X046946Y020995D02*
X048915D01*
X030128Y019183D02*
Y020108D01*
X028159Y019183D02*
Y020108D01*
X030128D01*
X028159Y019183D02*
X030128D01*
X031094Y014508D02*
X034016D01*
X031094Y016673D02*
X034016D01*
Y014508D02*
Y016673D01*
X031094Y014508D02*
Y016673D01*
X025406Y019183D02*
Y020108D01*
X023438Y019183D02*
Y020108D01*
X025406D01*
X023438Y019183D02*
X025406D01*
X027918Y016835D02*
Y017417D01*
X025485Y016835D02*
X027918D01*
X025485D02*
Y017417D01*
X025276D02*
X025485D01*
X025276D02*
Y020064D01*
X025509D01*
Y021441D01*
X027895D01*
Y020064D02*
Y021441D01*
Y020064D02*
X028127D01*
Y017417D02*
Y020064D01*
X027918Y017417D02*
X028127D01*
X023234Y016835D02*
Y017417D01*
X020801Y016835D02*
X023234D01*
X020801D02*
Y017417D01*
X020592D02*
X020801D01*
X020592D02*
Y020064D01*
X020825D01*
Y021441D01*
X023211D01*
Y020064D02*
Y021441D01*
Y020064D02*
X023443D01*
Y017417D02*
Y020064D01*
X023234Y017417D02*
X023443D01*
X01855Y016769D02*
Y017352D01*
X016117Y016769D02*
X01855D01*
X016117D02*
Y017352D01*
X015908D02*
X016117D01*
X015908D02*
Y019998D01*
X016141D01*
Y021375D01*
X018527D01*
Y019998D02*
Y021375D01*
Y019998D02*
X018759D01*
Y017352D02*
Y019998D01*
X01855Y017352D02*
X018759D01*
X013866Y01669D02*
Y017273D01*
X011433Y01669D02*
X013866D01*
X011433D02*
Y017273D01*
X011224D02*
X011433D01*
X011224D02*
Y01992D01*
X011457D01*
Y021296D01*
X013843D01*
Y01992D02*
Y021296D01*
Y01992D02*
X014075D01*
Y017273D02*
Y01992D01*
X013866Y017273D02*
X014075D01*
X025951Y02788D02*
Y029541D01*
Y02788D02*
X026187D01*
Y027037D02*
Y02788D01*
Y027037D02*
X028557D01*
Y02788D01*
X028793D01*
Y029541D01*
X028108D02*
X028793D01*
X028108D02*
Y030384D01*
X026636D02*
X028108D01*
X026636Y029541D02*
Y030384D01*
X025951Y029541D02*
X026636D01*
X041856Y023826D02*
X045152D01*
Y025905D01*
X045602D01*
Y029254D01*
X041406Y025905D02*
Y029254D01*
Y025905D02*
X041856D01*
Y023826D02*
Y025905D01*
X04128Y030027D02*
X045728D01*
X04128Y029254D02*
X041406D01*
X04128D02*
Y030027D01*
X045728Y029254D02*
Y030027D01*
X045602Y029254D02*
X045728D01*
X028071Y025392D02*
Y026061D01*
X026732Y025392D02*
Y026061D01*
Y025392D02*
X028071D01*
X026732Y026061D02*
X028071D01*
X023845Y013187D02*
Y013856D01*
X022506Y013187D02*
Y013856D01*
X023845D01*
X022506Y013187D02*
X023845D01*
X01942D02*
Y013856D01*
X018081Y013187D02*
Y013856D01*
X01942D01*
X018081Y013187D02*
X01942D01*
X018716Y019183D02*
X020685D01*
X018716Y020108D02*
X020685D01*
X018716Y019183D02*
Y020108D01*
X020685Y019183D02*
Y020108D01*
X013994Y019183D02*
X015963D01*
X013994Y020108D02*
X015963D01*
X013994Y019183D02*
Y020108D01*
X015963Y019183D02*
Y020108D01*
X027824Y013187D02*
Y013856D01*
X026485Y013187D02*
Y013856D01*
X027824D01*
X026485Y013187D02*
X027824D01*
X015331D02*
Y013856D01*
X013992Y013187D02*
Y013856D01*
X015331D01*
X013992Y013187D02*
X015331D01*
M02*
