G04*
G04 #@! TF.GenerationSoftware,Altium Limited,Altium Designer,18.1.6 (161)*
G04*
G04 Layer_Physical_Order=2*
G04 Layer_Color=16711680*
%FSTAX24Y24*%
%MOIN*%
G70*
G01*
G75*
%ADD13C,0.0100*%
%ADD28R,0.0500X0.0550*%
%ADD29R,0.0492X0.0728*%
%ADD34R,0.0550X0.0500*%
%ADD35R,0.0246X0.0327*%
%ADD82C,0.0250*%
%ADD83C,0.0400*%
%ADD85C,0.0600*%
%ADD86C,0.0630*%
%ADD87C,0.1100*%
%ADD88C,0.0750*%
%ADD89R,0.1000X0.0800*%
%ADD90O,0.1000X0.0800*%
%ADD91O,0.0750X0.0650*%
%ADD92O,0.0750X0.0900*%
%ADD93R,0.0750X0.0900*%
%ADD94R,0.0900X0.0600*%
%ADD95O,0.0900X0.0600*%
%ADD96C,0.0300*%
%ADD97C,0.0200*%
%ADD98C,0.1575*%
G36*
X04937Y01D02*
X01D01*
Y033622D01*
X04937D01*
Y01D01*
D02*
G37*
%LPC*%
G36*
X023125Y03305D02*
X0227D01*
Y03255D01*
X023125D01*
Y03305D01*
D02*
G37*
G36*
X018877D02*
X018452D01*
Y03255D01*
X018877D01*
Y03305D01*
D02*
G37*
G36*
X0226D02*
X022175D01*
Y03255D01*
X0226D01*
Y03305D01*
D02*
G37*
G36*
X018352D02*
X017927D01*
Y03255D01*
X018352D01*
Y03305D01*
D02*
G37*
G36*
X0249Y032998D02*
Y0325D01*
X025329D01*
Y032525D01*
X025313Y032649D01*
X025265Y032765D01*
X025189Y032864D01*
X02509Y03294D01*
X024974Y032988D01*
X0249Y032998D01*
D02*
G37*
G36*
X0248D02*
X024726Y032988D01*
X02461Y03294D01*
X024511Y032864D01*
X024435Y032765D01*
X024387Y032649D01*
X024371Y032525D01*
Y0325D01*
X0248D01*
Y032998D01*
D02*
G37*
G36*
X030575Y032964D02*
X03015D01*
Y032464D01*
X030575D01*
Y032964D01*
D02*
G37*
G36*
X03005D02*
X029625D01*
Y032464D01*
X03005D01*
Y032964D01*
D02*
G37*
G36*
X037015Y03295D02*
X03659D01*
Y03245D01*
X037015D01*
Y03295D01*
D02*
G37*
G36*
X038826Y032948D02*
Y03245D01*
X039255D01*
Y032475D01*
X039239Y032599D01*
X039191Y032715D01*
X039115Y032814D01*
X039016Y03289D01*
X0389Y032938D01*
X038826Y032948D01*
D02*
G37*
G36*
X033825Y03295D02*
X0334D01*
Y03245D01*
X033825D01*
Y03295D01*
D02*
G37*
G36*
X03649D02*
X036065D01*
Y03245D01*
X03649D01*
Y03295D01*
D02*
G37*
G36*
X0333D02*
X032875D01*
Y03245D01*
X0333D01*
Y03295D01*
D02*
G37*
G36*
X038726Y032948D02*
X038652Y032938D01*
X038536Y03289D01*
X038437Y032814D01*
X038361Y032715D01*
X038313Y032599D01*
X038297Y032475D01*
Y03245D01*
X038726D01*
Y032948D01*
D02*
G37*
G36*
X0216Y033004D02*
X021489Y032989D01*
X021386Y032946D01*
X021297Y032878D01*
X021229Y032789D01*
X021186Y032686D01*
X021171Y032575D01*
Y032425D01*
X021186Y032314D01*
X021229Y032211D01*
X021297Y032122D01*
X021386Y032054D01*
X021489Y032011D01*
X0216Y031996D01*
X021711Y032011D01*
X021814Y032054D01*
X021903Y032122D01*
X021971Y032211D01*
X022014Y032314D01*
X022029Y032425D01*
Y032575D01*
X022014Y032686D01*
X021971Y032789D01*
X021903Y032878D01*
X021814Y032946D01*
X021711Y032989D01*
X0216Y033004D01*
D02*
G37*
G36*
X0206D02*
X020489Y032989D01*
X020386Y032946D01*
X020297Y032878D01*
X020229Y032789D01*
X020186Y032686D01*
X020171Y032575D01*
Y032425D01*
X020186Y032314D01*
X020229Y032211D01*
X020297Y032122D01*
X020386Y032054D01*
X020489Y032011D01*
X0206Y031996D01*
X020711Y032011D01*
X020814Y032054D01*
X020903Y032122D01*
X020971Y032211D01*
X021014Y032314D01*
X021029Y032425D01*
Y032575D01*
X021014Y032686D01*
X020971Y032789D01*
X020903Y032878D01*
X020814Y032946D01*
X020711Y032989D01*
X0206Y033004D01*
D02*
G37*
G36*
X017352D02*
X017241Y032989D01*
X017138Y032946D01*
X017049Y032878D01*
X016981Y032789D01*
X016938Y032686D01*
X016924Y032575D01*
Y032425D01*
X016938Y032314D01*
X016981Y032211D01*
X017049Y032122D01*
X017138Y032054D01*
X017241Y032011D01*
X017352Y031996D01*
X017463Y032011D01*
X017567Y032054D01*
X017656Y032122D01*
X017724Y032211D01*
X017766Y032314D01*
X017781Y032425D01*
Y032575D01*
X017766Y032686D01*
X017724Y032789D01*
X017656Y032878D01*
X017567Y032946D01*
X017463Y032989D01*
X017352Y033004D01*
D02*
G37*
G36*
X016352D02*
X016242Y032989D01*
X016138Y032946D01*
X016049Y032878D01*
X015981Y032789D01*
X015938Y032686D01*
X015924Y032575D01*
Y032425D01*
X015938Y032314D01*
X015981Y032211D01*
X016049Y032122D01*
X016138Y032054D01*
X016242Y032011D01*
X016352Y031996D01*
X016463Y032011D01*
X016567Y032054D01*
X016656Y032122D01*
X016724Y032211D01*
X016767Y032314D01*
X016781Y032425D01*
Y032575D01*
X016767Y032686D01*
X016724Y032789D01*
X016656Y032878D01*
X016567Y032946D01*
X016463Y032989D01*
X016352Y033004D01*
D02*
G37*
G36*
X023125Y03245D02*
X0227D01*
Y03195D01*
X023125D01*
Y03245D01*
D02*
G37*
G36*
X0226D02*
X022175D01*
Y03195D01*
X0226D01*
Y03245D01*
D02*
G37*
G36*
X018877D02*
X018452D01*
Y03195D01*
X018877D01*
Y03245D01*
D02*
G37*
G36*
X018352D02*
X017927D01*
Y03195D01*
X018352D01*
Y03245D01*
D02*
G37*
G36*
X02585Y032954D02*
X025739Y032939D01*
X025636Y032896D01*
X025547Y032828D01*
X025479Y032739D01*
X025436Y032636D01*
X025421Y032525D01*
Y032375D01*
X025436Y032264D01*
X025479Y032161D01*
X025547Y032072D01*
X025636Y032004D01*
X02571Y031973D01*
X0257Y031923D01*
X025123D01*
X025106Y031973D01*
X025189Y032036D01*
X025265Y032135D01*
X025313Y032251D01*
X025329Y032375D01*
Y0324D01*
X02485D01*
X024371D01*
Y032375D01*
X024387Y032251D01*
X024435Y032135D01*
X024511Y032036D01*
X024594Y031973D01*
X024577Y031923D01*
X023902D01*
X023863Y031915D01*
X023829Y031893D01*
X020268Y028331D01*
X020246Y028298D01*
X020238Y028259D01*
Y026579D01*
X020232Y026575D01*
X020199Y026525D01*
X020187Y026467D01*
X020199Y026408D01*
X020232Y026358D01*
X020282Y026325D01*
X02034Y026314D01*
X020399Y026325D01*
X020448Y026358D01*
X020481Y026408D01*
X020493Y026467D01*
X020481Y026525D01*
X020448Y026575D01*
X020442Y026579D01*
Y028217D01*
X023944Y031719D01*
X028507D01*
X028546Y031727D01*
X028579Y031749D01*
X028836Y032006D01*
X028886Y031968D01*
X028989Y031925D01*
X0291Y031911D01*
X029211Y031925D01*
X029314Y031968D01*
X029403Y032036D01*
X029471Y032125D01*
X029514Y032228D01*
X029529Y032339D01*
Y032489D01*
X029514Y0326D01*
X029471Y032704D01*
X029403Y032792D01*
X029314Y03286D01*
X029211Y032903D01*
X0291Y032918D01*
X028989Y032903D01*
X028886Y03286D01*
X028797Y032792D01*
X028729Y032704D01*
X028686Y0326D01*
X028671Y032489D01*
Y032339D01*
X028686Y032228D01*
X028711Y032169D01*
X028464Y031923D01*
X027364D01*
X027325Y03195D01*
X027325Y031973D01*
Y03295D01*
X026475D01*
Y031973D01*
X026475Y03195D01*
X026436Y031923D01*
X026D01*
X02599Y031973D01*
X026064Y032004D01*
X026153Y032072D01*
X026221Y032161D01*
X026264Y032264D01*
X026279Y032375D01*
Y032525D01*
X026264Y032636D01*
X026221Y032739D01*
X026153Y032828D01*
X026064Y032896D01*
X025961Y032939D01*
X02585Y032954D01*
D02*
G37*
G36*
X041251Y0329D02*
X040401D01*
Y0319D01*
X041251D01*
Y0329D01*
D02*
G37*
G36*
X039776Y032904D02*
X039665Y032889D01*
X039562Y032846D01*
X039473Y032778D01*
X039405Y032689D01*
X039362Y032586D01*
X039347Y032475D01*
Y032325D01*
X039362Y032214D01*
X039405Y032111D01*
X039473Y032022D01*
X039562Y031954D01*
X039665Y031911D01*
X039776Y031896D01*
X039887Y031911D01*
X03999Y031954D01*
X040079Y032022D01*
X040147Y032111D01*
X04019Y032214D01*
X040205Y032325D01*
Y032475D01*
X04019Y032586D01*
X040147Y032689D01*
X040079Y032778D01*
X03999Y032846D01*
X039887Y032889D01*
X039776Y032904D01*
D02*
G37*
G36*
X034702Y03334D02*
X031427D01*
X031388Y033332D01*
X031355Y03331D01*
X031119Y033074D01*
X031097Y033041D01*
X031089Y033002D01*
Y031932D01*
X030794Y031637D01*
X024449D01*
X02441Y03163D01*
X024377Y031608D01*
X021338Y028569D01*
X021289Y028563D01*
X02124Y028596D01*
X021181Y028608D01*
X021123Y028596D01*
X021073Y028563D01*
X02104Y028513D01*
X021028Y028455D01*
X02104Y028396D01*
X021073Y028347D01*
X021123Y028313D01*
X021181Y028302D01*
X02124Y028313D01*
X021289Y028347D01*
X021293Y028353D01*
X021368D01*
X021407Y028361D01*
X02144Y028383D01*
X024491Y031433D01*
X030837D01*
X030876Y031441D01*
X030909Y031463D01*
X031263Y031818D01*
X031285Y031851D01*
X031293Y03189D01*
Y03296D01*
X031469Y033136D01*
X03466D01*
X035151Y032645D01*
X035126Y032586D01*
X035111Y032475D01*
Y032325D01*
X035126Y032214D01*
X035169Y032111D01*
X035237Y032022D01*
X035326Y031954D01*
X035429Y031911D01*
X03554Y031896D01*
X035651Y031911D01*
X035754Y031954D01*
X035843Y032022D01*
X035911Y032111D01*
X035954Y032214D01*
X035969Y032325D01*
Y032475D01*
X035954Y032586D01*
X035911Y032689D01*
X035843Y032778D01*
X035754Y032846D01*
X035651Y032889D01*
X03554Y032904D01*
X035429Y032889D01*
X035326Y032846D01*
X035276Y032808D01*
X034774Y03331D01*
X034741Y033332D01*
X034702Y03334D01*
D02*
G37*
G36*
X03235Y032904D02*
X032239Y032889D01*
X032136Y032846D01*
X032047Y032778D01*
X031979Y032689D01*
X031936Y032586D01*
X031921Y032475D01*
Y032325D01*
X031936Y032214D01*
X031961Y032155D01*
X030958Y031152D01*
X024731D01*
X024692Y031144D01*
X024659Y031122D01*
X021582Y028045D01*
X021372D01*
X021368Y028051D01*
X021318Y028084D01*
X02126Y028096D01*
X021201Y028084D01*
X021152Y028051D01*
X021119Y028001D01*
X021107Y027943D01*
X021119Y027884D01*
X021152Y027835D01*
X021201Y027802D01*
X02126Y02779D01*
X021318Y027802D01*
X021368Y027835D01*
X021372Y027841D01*
X021624D01*
X021663Y027849D01*
X021696Y027871D01*
X024773Y030948D01*
X031D01*
X031039Y030956D01*
X031072Y030978D01*
X032086Y031992D01*
X032136Y031954D01*
X032239Y031911D01*
X03235Y031896D01*
X032461Y031911D01*
X032564Y031954D01*
X032653Y032022D01*
X032721Y032111D01*
X032764Y032214D01*
X032779Y032325D01*
Y032475D01*
X032764Y032586D01*
X032721Y032689D01*
X032653Y032778D01*
X032564Y032846D01*
X032461Y032889D01*
X03235Y032904D01*
D02*
G37*
G36*
X030575Y032364D02*
X03015D01*
Y031864D01*
X030575D01*
Y032364D01*
D02*
G37*
G36*
X03005D02*
X029625D01*
Y031864D01*
X03005D01*
Y032364D01*
D02*
G37*
G36*
X039255Y03235D02*
X038826D01*
Y031852D01*
X0389Y031862D01*
X039016Y03191D01*
X039115Y031986D01*
X039191Y032085D01*
X039239Y032201D01*
X039255Y032325D01*
Y03235D01*
D02*
G37*
G36*
X038726D02*
X038297D01*
Y032325D01*
X038313Y032201D01*
X038361Y032085D01*
X038437Y031986D01*
X038536Y03191D01*
X038652Y031862D01*
X038726Y031852D01*
Y03235D01*
D02*
G37*
G36*
X037015D02*
X03659D01*
Y03185D01*
X037015D01*
Y03235D01*
D02*
G37*
G36*
X03649D02*
X036065D01*
Y03185D01*
X03649D01*
Y03235D01*
D02*
G37*
G36*
X033825D02*
X0334D01*
Y03185D01*
X033825D01*
Y03235D01*
D02*
G37*
G36*
X0333D02*
X032875D01*
Y03185D01*
X0333D01*
Y03235D01*
D02*
G37*
G36*
X0484Y033491D02*
X048236Y033475D01*
X048078Y033427D01*
X047933Y03335D01*
X047805Y033245D01*
X0477Y033117D01*
X047623Y032972D01*
X047575Y032814D01*
X047559Y03265D01*
X047575Y032486D01*
X047623Y032328D01*
X0477Y032183D01*
X047805Y032055D01*
X047933Y03195D01*
X048078Y031873D01*
X048236Y031825D01*
X0484Y031809D01*
X048564Y031825D01*
X048722Y031873D01*
X048867Y03195D01*
X048995Y032055D01*
X0491Y032183D01*
X049177Y032328D01*
X049225Y032486D01*
X049241Y03265D01*
X049225Y032814D01*
X049177Y032972D01*
X0491Y033117D01*
X048995Y033245D01*
X048867Y03335D01*
X048722Y033427D01*
X048564Y033475D01*
X0484Y033491D01*
D02*
G37*
G36*
X0109D02*
X010736Y033475D01*
X010578Y033427D01*
X010433Y03335D01*
X010305Y033245D01*
X0102Y033117D01*
X010123Y032972D01*
X010075Y032814D01*
X010059Y03265D01*
X010075Y032486D01*
X010123Y032328D01*
X0102Y032183D01*
X010305Y032055D01*
X010433Y03195D01*
X010578Y031873D01*
X010736Y031825D01*
X0109Y031809D01*
X011064Y031825D01*
X011222Y031873D01*
X011367Y03195D01*
X011495Y032055D01*
X0116Y032183D01*
X011677Y032328D01*
X011725Y032486D01*
X011741Y03265D01*
X011725Y032814D01*
X011677Y032972D01*
X0116Y033117D01*
X011495Y033245D01*
X011367Y03335D01*
X011222Y033427D01*
X011064Y033475D01*
X0109Y033491D01*
D02*
G37*
G36*
X043425Y032945D02*
X043308Y032934D01*
X043194Y0329D01*
X04309Y032844D01*
X042999Y032769D01*
X042924Y032677D01*
X042868Y032573D01*
X042834Y03246D01*
X042822Y032343D01*
X042834Y032225D01*
X042868Y032112D01*
X042924Y032008D01*
X042999Y031916D01*
X04309Y031841D01*
X043194Y031786D01*
X043308Y031751D01*
X043425Y03174D01*
X043543Y031751D01*
X043656Y031786D01*
X04376Y031841D01*
X043852Y031916D01*
X043926Y032008D01*
X043982Y032112D01*
X044017Y032225D01*
X044028Y032343D01*
X044017Y03246D01*
X043982Y032573D01*
X043926Y032677D01*
X043852Y032769D01*
X04376Y032844D01*
X043656Y0329D01*
X043543Y032934D01*
X043425Y032945D01*
D02*
G37*
G36*
X019341Y033549D02*
X019282Y033537D01*
X019233Y033504D01*
X0192Y033454D01*
X019188Y033396D01*
X0192Y033337D01*
X019233Y033288D01*
X019239Y033283D01*
Y032021D01*
X01857Y031352D01*
X017842D01*
X017825Y031378D01*
X017775Y031411D01*
X017717Y031423D01*
X017658Y031411D01*
X017608Y031378D01*
X017575Y031328D01*
X017564Y03127D01*
X017575Y031211D01*
X017608Y031162D01*
X017658Y031128D01*
X017717Y031117D01*
X017775Y031128D01*
X017804Y031148D01*
X018612D01*
X018651Y031156D01*
X018684Y031178D01*
X019413Y031907D01*
X019435Y03194D01*
X019443Y031979D01*
Y033283D01*
X019449Y033288D01*
X019482Y033337D01*
X019494Y033396D01*
X019482Y033454D01*
X019449Y033504D01*
X0194Y033537D01*
X019341Y033549D01*
D02*
G37*
G36*
X011585Y031335D02*
X011485D01*
X011388Y031322D01*
X011296Y031284D01*
X011218Y031224D01*
X011158Y031145D01*
X01112Y031054D01*
X011107Y030956D01*
X01112Y030858D01*
X011158Y030767D01*
X011218Y030689D01*
X011296Y030629D01*
X011388Y030591D01*
X011485Y030578D01*
X011585D01*
X011683Y030591D01*
X011775Y030629D01*
X011853Y030689D01*
X011913Y030767D01*
X011951Y030858D01*
X011964Y030956D01*
X011951Y031054D01*
X011913Y031145D01*
X011853Y031224D01*
X011775Y031284D01*
X011683Y031322D01*
X011585Y031335D01*
D02*
G37*
G36*
X015512Y031637D02*
X01312D01*
X013081Y03163D01*
X013048Y031608D01*
X012605Y031165D01*
X012583Y031132D01*
X012575Y031093D01*
Y029665D01*
X012583Y029626D01*
X012605Y029593D01*
X013281Y028917D01*
X012422Y028058D01*
X011949D01*
X011913Y028145D01*
X011853Y028224D01*
X011775Y028284D01*
X011683Y028322D01*
X011585Y028335D01*
X011485D01*
X011388Y028322D01*
X011296Y028284D01*
X011218Y028224D01*
X011158Y028145D01*
X01112Y028054D01*
X011107Y027956D01*
X01112Y027858D01*
X011158Y027767D01*
X011218Y027689D01*
X011296Y027629D01*
X011388Y027591D01*
X011485Y027578D01*
X011585D01*
X011683Y027591D01*
X011775Y027629D01*
X011853Y027689D01*
X011913Y027767D01*
X011949Y027854D01*
X012362D01*
Y027136D01*
X012192Y026966D01*
X012185Y026968D01*
X012127Y026956D01*
X012077Y026923D01*
X012044Y026873D01*
X012032Y026815D01*
X012044Y026756D01*
X012077Y026707D01*
X012127Y026674D01*
X012185Y026662D01*
X012244Y026674D01*
X012293Y026707D01*
X012326Y026756D01*
X012338Y026815D01*
X012337Y026822D01*
X012536Y027022D01*
X012558Y027055D01*
X012566Y027094D01*
Y027914D01*
X013425Y028773D01*
X014534Y027664D01*
Y027061D01*
X014528Y027057D01*
X014495Y027007D01*
X014483Y026949D01*
X014495Y02689D01*
X014528Y026841D01*
X014534Y026837D01*
Y026462D01*
X014542Y026423D01*
X014564Y02639D01*
X014776Y026178D01*
X014809Y026156D01*
X014848Y026148D01*
X016872D01*
X016887Y026098D01*
X016878Y026092D01*
X016845Y026043D01*
X016834Y025984D01*
X016835Y025977D01*
X0166Y025742D01*
X014836D01*
X014521Y026056D01*
X014488Y026078D01*
X014449Y026086D01*
X011313D01*
X011309Y026092D01*
X011259Y026126D01*
X011201Y026137D01*
X011142Y026126D01*
X011093Y026092D01*
X011059Y026043D01*
X011048Y025984D01*
X011059Y025926D01*
X011093Y025876D01*
X011142Y025843D01*
X011201Y025831D01*
X011208Y025833D01*
X011529Y025512D01*
Y024903D01*
X01152Y024902D01*
X011417Y024859D01*
X011328Y024791D01*
X01126Y024703D01*
X011217Y024599D01*
X011202Y024488D01*
X011217Y024377D01*
X01126Y024274D01*
X011328Y024185D01*
X011417Y024117D01*
X01152Y024074D01*
X011631Y02406D01*
X011742Y024074D01*
X011845Y024117D01*
X011934Y024185D01*
X012002Y024274D01*
X012045Y024377D01*
X01206Y024488D01*
X012045Y024599D01*
X012002Y024703D01*
X011934Y024791D01*
X011845Y024859D01*
X011742Y024902D01*
X011733Y024903D01*
Y025554D01*
X011725Y025593D01*
X011703Y025626D01*
X011493Y025836D01*
X011512Y025882D01*
X014407D01*
X014721Y025568D01*
X014754Y025546D01*
X014793Y025538D01*
X016642D01*
X016681Y025546D01*
X016714Y025568D01*
X016979Y025833D01*
X016987Y025831D01*
X017045Y025843D01*
X017095Y025876D01*
X017128Y025926D01*
X01714Y025984D01*
X017128Y026043D01*
X017095Y026092D01*
X017086Y026098D01*
X017101Y026148D01*
X019456D01*
X019688Y025916D01*
X019687Y025908D01*
X019698Y02585D01*
X019732Y0258D01*
X019781Y025767D01*
X01984Y025755D01*
X019898Y025767D01*
X019948Y0258D01*
X019981Y02585D01*
X019993Y025908D01*
X019981Y025967D01*
X019948Y026016D01*
X019898Y02605D01*
X01984Y026061D01*
X019832Y02606D01*
X01957Y026322D01*
X019537Y026344D01*
X019498Y026352D01*
X01489D01*
X014738Y026505D01*
Y026837D01*
X014744Y026841D01*
X014777Y02689D01*
X014789Y026949D01*
X014777Y027007D01*
X014744Y027057D01*
X014738Y027061D01*
Y027707D01*
X01473Y027746D01*
X014708Y027779D01*
X013497Y028989D01*
X012779Y029708D01*
Y03105D01*
X013162Y031433D01*
X014721D01*
Y030672D01*
X014673Y030624D01*
X014665Y030625D01*
X014607Y030614D01*
X014557Y030581D01*
X014524Y030531D01*
X014512Y030472D01*
X014524Y030414D01*
X014557Y030364D01*
X014607Y030331D01*
X014665Y030319D01*
X014724Y030331D01*
X014773Y030364D01*
X014807Y030414D01*
X014818Y030472D01*
X014817Y03048D01*
X014895Y030558D01*
X014917Y030591D01*
X014925Y03063D01*
Y031433D01*
X01547D01*
X016335Y030568D01*
X016368Y030546D01*
X016407Y030538D01*
X019474D01*
X019478Y030532D01*
X019528Y030498D01*
X019587Y030487D01*
X019645Y030498D01*
X019695Y030532D01*
X019699Y030538D01*
X022092D01*
X022097Y030532D01*
X022146Y030498D01*
X022205Y030487D01*
X022263Y030498D01*
X022313Y030532D01*
X022346Y030581D01*
X022358Y03064D01*
X022346Y030698D01*
X022313Y030748D01*
X022263Y030781D01*
X022205Y030793D01*
X022146Y030781D01*
X022097Y030748D01*
X022092Y030742D01*
X019699D01*
X019695Y030748D01*
X019645Y030781D01*
X019587Y030793D01*
X019528Y030781D01*
X019478Y030748D01*
X019474Y030742D01*
X01645D01*
X015584Y031608D01*
X015551Y03163D01*
X015512Y031637D01*
D02*
G37*
G36*
X011585Y030375D02*
Y029996D01*
X012008D01*
X011999Y030057D01*
X011957Y030161D01*
X011889Y030249D01*
X0118Y030318D01*
X011696Y03036D01*
X011585Y030375D01*
D02*
G37*
G36*
X011485D02*
X011485D01*
X011374Y03036D01*
X011271Y030318D01*
X011182Y030249D01*
X011114Y030161D01*
X011071Y030057D01*
X011063Y029996D01*
X011485D01*
Y030375D01*
D02*
G37*
G36*
X012008Y029896D02*
X011585D01*
Y029518D01*
X011696Y029532D01*
X0118Y029575D01*
X011889Y029643D01*
X011957Y029732D01*
X011999Y029835D01*
X012008Y029896D01*
D02*
G37*
G36*
X011485D02*
X011063D01*
X011071Y029835D01*
X011114Y029732D01*
X011182Y029643D01*
X011271Y029575D01*
X011374Y029532D01*
X011485Y029518D01*
X011485D01*
Y029896D01*
D02*
G37*
G36*
X011585Y029345D02*
X011485D01*
X011388Y029332D01*
X011296Y029294D01*
X011218Y029234D01*
X011158Y029155D01*
X01112Y029064D01*
X011107Y028966D01*
X01112Y028868D01*
X011158Y028777D01*
X011218Y028699D01*
X011296Y028639D01*
X011388Y028601D01*
X011485Y028588D01*
X011585D01*
X011683Y028601D01*
X011775Y028639D01*
X011853Y028699D01*
X011913Y028777D01*
X011951Y028868D01*
X011964Y028966D01*
X011951Y029064D01*
X011913Y029155D01*
X011853Y029234D01*
X011775Y029294D01*
X011683Y029332D01*
X011585Y029345D01*
D02*
G37*
G36*
X025808Y027783D02*
Y027639D01*
X025952D01*
X025946Y027667D01*
X025902Y027733D01*
X025836Y027777D01*
X025808Y027783D01*
D02*
G37*
G36*
X025708D02*
X02568Y027777D01*
X025614Y027733D01*
X025569Y027667D01*
X025564Y027639D01*
X025708D01*
Y027783D01*
D02*
G37*
G36*
X025952Y027539D02*
X025808D01*
Y027395D01*
X025836Y0274D01*
X025902Y027444D01*
X025946Y027511D01*
X025952Y027539D01*
D02*
G37*
G36*
X025708D02*
X025564D01*
X025569Y027511D01*
X025614Y027444D01*
X02568Y0274D01*
X025708Y027395D01*
Y027539D01*
D02*
G37*
G36*
X034587Y027418D02*
Y027274D01*
X034731D01*
X034726Y027302D01*
X034682Y027369D01*
X034615Y027413D01*
X034587Y027418D01*
D02*
G37*
G36*
X034487D02*
X034459Y027413D01*
X034393Y027369D01*
X034349Y027302D01*
X034343Y027274D01*
X034487D01*
Y027418D01*
D02*
G37*
G36*
X03361Y027231D02*
Y027087D01*
X033754D01*
X033749Y027115D01*
X033704Y027182D01*
X033638Y027226D01*
X03361Y027231D01*
D02*
G37*
G36*
X03351D02*
X033482Y027226D01*
X033416Y027182D01*
X033372Y027115D01*
X033366Y027087D01*
X03351D01*
Y027231D01*
D02*
G37*
G36*
X034731Y027174D02*
X034587D01*
Y02703D01*
X034615Y027036D01*
X034682Y02708D01*
X034726Y027146D01*
X034731Y027174D01*
D02*
G37*
G36*
X034487D02*
X034343D01*
X034349Y027146D01*
X034393Y02708D01*
X034459Y027036D01*
X034487Y02703D01*
Y027174D01*
D02*
G37*
G36*
X013252Y027133D02*
Y026989D01*
X013396D01*
X01339Y027017D01*
X013346Y027083D01*
X01328Y027127D01*
X013252Y027133D01*
D02*
G37*
G36*
X013152D02*
X013124Y027127D01*
X013057Y027083D01*
X013013Y027017D01*
X013008Y026989D01*
X013152D01*
Y027133D01*
D02*
G37*
G36*
X033754Y026987D02*
X03361D01*
Y026843D01*
X033638Y026849D01*
X033704Y026893D01*
X033749Y026959D01*
X033754Y026987D01*
D02*
G37*
G36*
X03351D02*
X033366D01*
X033372Y026959D01*
X033416Y026893D01*
X033482Y026849D01*
X03351Y026843D01*
Y026987D01*
D02*
G37*
G36*
X013396Y026889D02*
X013252D01*
Y026745D01*
X01328Y026751D01*
X013346Y026795D01*
X01339Y026861D01*
X013396Y026889D01*
D02*
G37*
G36*
X013152D02*
X013008D01*
X013013Y026861D01*
X013057Y026795D01*
X013124Y026751D01*
X013152Y026745D01*
Y026889D01*
D02*
G37*
G36*
X040827Y027159D02*
X040732Y027147D01*
X040643Y02711D01*
X040566Y027052D01*
X040508Y026975D01*
X040471Y026887D01*
X040459Y026791D01*
X040471Y026696D01*
X040508Y026607D01*
X040566Y026531D01*
X040643Y026473D01*
X040732Y026436D01*
X040827Y026423D01*
X040922Y026436D01*
X041011Y026473D01*
X041087Y026531D01*
X041146Y026607D01*
X041182Y026696D01*
X041195Y026791D01*
X041182Y026887D01*
X041146Y026975D01*
X041087Y027052D01*
X041011Y02711D01*
X040922Y027147D01*
X040827Y027159D01*
D02*
G37*
G36*
X037874D02*
X037779Y027147D01*
X03769Y02711D01*
X037614Y027052D01*
X037555Y026975D01*
X037518Y026887D01*
X037506Y026791D01*
X037518Y026696D01*
X037555Y026607D01*
X037614Y026531D01*
X03769Y026473D01*
X037779Y026436D01*
X037874Y026423D01*
X037969Y026436D01*
X038058Y026473D01*
X038134Y026531D01*
X038193Y026607D01*
X03823Y026696D01*
X038242Y026791D01*
X03823Y026887D01*
X038193Y026975D01*
X038134Y027052D01*
X038058Y02711D01*
X037969Y027147D01*
X037874Y027159D01*
D02*
G37*
G36*
X023465Y026119D02*
Y025975D01*
X023609D01*
X023604Y026003D01*
X02356Y026069D01*
X023493Y026114D01*
X023465Y026119D01*
D02*
G37*
G36*
X023365D02*
X023337Y026114D01*
X023271Y026069D01*
X023227Y026003D01*
X023221Y025975D01*
X023365D01*
Y026119D01*
D02*
G37*
G36*
X023609Y025875D02*
X023465D01*
Y025731D01*
X023493Y025737D01*
X02356Y025781D01*
X023604Y025847D01*
X023609Y025875D01*
D02*
G37*
G36*
X023365D02*
X023221D01*
X023227Y025847D01*
X023271Y025781D01*
X023337Y025737D01*
X023365Y025731D01*
Y025875D01*
D02*
G37*
G36*
X029107Y026547D02*
X029039Y026533D01*
X028981Y026494D01*
X028406Y025919D01*
X028388Y025915D01*
X028322Y025871D01*
X028278Y025805D01*
X028262Y025727D01*
X028278Y025649D01*
X028322Y025583D01*
X028388Y025538D01*
X028466Y025523D01*
X028544Y025538D01*
X02861Y025583D01*
X028655Y025649D01*
X028658Y025666D01*
X029181Y02619D01*
X031342D01*
X03189Y025642D01*
X031948Y025603D01*
X032016Y025589D01*
X032016Y025589D01*
X032192D01*
X032207Y025579D01*
X032285Y025564D01*
X032363Y025579D01*
X032429Y025624D01*
X032473Y02569D01*
X032489Y025768D01*
X032473Y025846D01*
X032429Y025912D01*
X032363Y025956D01*
X032285Y025972D01*
X032207Y025956D01*
X032192Y025946D01*
X03209D01*
X031542Y026494D01*
X031484Y026533D01*
X031416Y026547D01*
X029107D01*
X029107Y026547D01*
D02*
G37*
G36*
X029883Y025381D02*
Y025237D01*
X030027D01*
X030021Y025265D01*
X029977Y025331D01*
X029911Y025375D01*
X029883Y025381D01*
D02*
G37*
G36*
X029783D02*
X029755Y025375D01*
X029688Y025331D01*
X029644Y025265D01*
X029639Y025237D01*
X029783D01*
Y025381D01*
D02*
G37*
G36*
X030027Y025137D02*
X029883D01*
Y024993D01*
X029911Y024999D01*
X029977Y025043D01*
X030021Y025109D01*
X030027Y025137D01*
D02*
G37*
G36*
X029783D02*
X029639D01*
X029644Y025109D01*
X029688Y025043D01*
X029755Y024999D01*
X029783Y024993D01*
Y025137D01*
D02*
G37*
G36*
X014478Y025054D02*
X01445Y025048D01*
X014383Y025004D01*
X014366Y024977D01*
X014306D01*
X014288Y025004D01*
X014222Y025048D01*
X014194Y025054D01*
Y02486D01*
Y024666D01*
X014222Y024671D01*
X014288Y024715D01*
X014306Y024742D01*
X014366D01*
X014383Y024715D01*
X01445Y024671D01*
X014478Y024666D01*
Y02486D01*
Y025054D01*
D02*
G37*
G36*
X014094D02*
X014066Y025048D01*
X014Y025004D01*
X013982Y024977D01*
X013922D01*
X013904Y025004D01*
X013838Y025048D01*
X01381Y025054D01*
Y02486D01*
Y024666D01*
X013838Y024671D01*
X013904Y024715D01*
X013922Y024742D01*
X013982D01*
X014Y024715D01*
X014066Y024671D01*
X014094Y024666D01*
Y02486D01*
Y025054D01*
D02*
G37*
G36*
X012235Y025076D02*
Y024932D01*
X012379D01*
X012373Y02496D01*
X012329Y025026D01*
X012263Y02507D01*
X012235Y025076D01*
D02*
G37*
G36*
X012135D02*
X012107Y02507D01*
X012041Y025026D01*
X011997Y02496D01*
X011991Y024932D01*
X012135D01*
Y025076D01*
D02*
G37*
G36*
X014578Y025054D02*
Y02491D01*
X014722D01*
X014716Y024938D01*
X014672Y025004D01*
X014606Y025048D01*
X014578Y025054D01*
D02*
G37*
G36*
X01371D02*
X013682Y025048D01*
X013616Y025004D01*
X013571Y024938D01*
X013566Y02491D01*
X01371D01*
Y025054D01*
D02*
G37*
G36*
X020946Y02492D02*
Y024776D01*
X02109D01*
X021084Y024804D01*
X02104Y024871D01*
X020974Y024915D01*
X020946Y02492D01*
D02*
G37*
G36*
X020846D02*
X020818Y024915D01*
X020751Y024871D01*
X020707Y024804D01*
X020702Y024776D01*
X020846D01*
Y02492D01*
D02*
G37*
G36*
X012379Y024832D02*
X012235D01*
Y024688D01*
X012263Y024693D01*
X012329Y024738D01*
X012373Y024804D01*
X012379Y024832D01*
D02*
G37*
G36*
X012135D02*
X011991D01*
X011997Y024804D01*
X012041Y024738D01*
X012107Y024693D01*
X012135Y024688D01*
Y024832D01*
D02*
G37*
G36*
X014722Y02481D02*
X014578D01*
Y024666D01*
X014606Y024671D01*
X014672Y024715D01*
X014716Y024781D01*
X014722Y02481D01*
D02*
G37*
G36*
X01371D02*
X013566D01*
X013571Y024781D01*
X013616Y024715D01*
X013682Y024671D01*
X01371Y024666D01*
Y02481D01*
D02*
G37*
G36*
X02109Y024676D02*
X020702D01*
X020707Y024648D01*
X020749Y024586D01*
X020755Y024571D01*
Y024539D01*
X020749Y024524D01*
X020707Y024461D01*
X020702Y024433D01*
X02109D01*
X021084Y024461D01*
X021042Y024524D01*
X021036Y024539D01*
Y024571D01*
X021042Y024586D01*
X021084Y024648D01*
X02109Y024676D01*
D02*
G37*
G36*
Y024333D02*
X020702D01*
X020707Y024305D01*
X020749Y024243D01*
X020755Y024227D01*
Y024196D01*
X020749Y024181D01*
X020707Y024118D01*
X020702Y02409D01*
X02109D01*
X021084Y024118D01*
X021042Y024181D01*
X021036Y024196D01*
Y024227D01*
X021042Y024243D01*
X021084Y024305D01*
X02109Y024333D01*
D02*
G37*
G36*
Y02399D02*
X020702D01*
X020707Y023962D01*
X020749Y0239D01*
X020755Y023884D01*
Y023853D01*
X020749Y023837D01*
X020707Y023775D01*
X020702Y023747D01*
X02109D01*
X021084Y023775D01*
X021042Y023837D01*
X021036Y023853D01*
Y023884D01*
X021042Y0239D01*
X021084Y023962D01*
X02109Y02399D01*
D02*
G37*
G36*
X046895Y025177D02*
X044582D01*
X044543Y025161D01*
X044528Y025123D01*
Y023558D01*
X044543Y02352D01*
X044582Y023504D01*
X045621D01*
Y020664D01*
X04368D01*
X04363Y02073D01*
X043536Y020803D01*
X043426Y020848D01*
X043309Y020863D01*
X043109D01*
X042991Y020848D01*
X042882Y020803D01*
X042788Y02073D01*
X042758Y020692D01*
X040767D01*
X040716Y020758D01*
X040622Y02083D01*
X040513Y020875D01*
X040395Y020891D01*
X040195D01*
X040078Y020875D01*
X039968Y02083D01*
X039874Y020758D01*
X039802Y020664D01*
X039757Y020554D01*
X039741Y020437D01*
X039757Y02032D01*
X039802Y02021D01*
X039874Y020116D01*
X039968Y020044D01*
X040078Y019999D01*
X040195Y019983D01*
X040395D01*
X040513Y019999D01*
X040622Y020044D01*
X040716Y020116D01*
X040767Y020182D01*
X042716D01*
X042788Y020089D01*
X042882Y020016D01*
X042991Y019971D01*
X043109Y019956D01*
X043309D01*
X043426Y019971D01*
X043536Y020016D01*
X04363Y020089D01*
X04368Y020155D01*
X045621D01*
Y011776D01*
X044641Y010796D01*
X02779D01*
X02694Y011646D01*
X026966Y011733D01*
X026978Y011851D01*
X026966Y011968D01*
X026932Y012082D01*
X026876Y012186D01*
X026801Y012277D01*
X02671Y012352D01*
X026606Y012408D01*
X026554Y012424D01*
Y013106D01*
X026756Y013308D01*
X02689D01*
Y013494D01*
X026895Y013521D01*
X02689Y013548D01*
Y013735D01*
X026544D01*
Y0137D01*
X025886D01*
X025634Y013952D01*
Y014618D01*
X025697Y014627D01*
X025782Y014662D01*
X025855Y014718D01*
X025911Y014791D01*
X025946Y014876D01*
X025958Y014968D01*
X025946Y015059D01*
X025911Y015144D01*
X025855Y015217D01*
X025782Y015273D01*
X025697Y015309D01*
X025605Y015321D01*
X025305D01*
X025214Y015309D01*
X025129Y015273D01*
X025056Y015217D01*
X024999Y015144D01*
X024964Y015059D01*
X024952Y014968D01*
X024964Y014876D01*
X024999Y014791D01*
X025056Y014718D01*
X025129Y014662D01*
X025214Y014627D01*
X025277Y014618D01*
Y013878D01*
X02529Y01381D01*
X025329Y013752D01*
X025686Y013395D01*
X025744Y013356D01*
X025812Y013343D01*
X025812Y013343D01*
X026221D01*
X02624Y013293D01*
X02621Y013248D01*
X026197Y01318D01*
Y012424D01*
X026144Y012408D01*
X02604Y012352D01*
X025949Y012277D01*
X025874Y012186D01*
X025818Y012082D01*
X025784Y011968D01*
X025772Y011851D01*
X025784Y011733D01*
X025818Y01162D01*
X025874Y011516D01*
X025949Y011424D01*
X02604Y011349D01*
X026144Y011294D01*
X026258Y011259D01*
X026375Y011248D01*
X026493Y011259D01*
X02658Y011286D01*
X027013Y010852D01*
X026994Y010806D01*
X022852D01*
X022338Y01132D01*
X022345Y01137D01*
X02238Y011388D01*
X022471Y011463D01*
X022546Y011555D01*
X022602Y011659D01*
X022636Y011772D01*
X022648Y01189D01*
X022636Y012007D01*
X022602Y01212D01*
X022546Y012225D01*
X022471Y012316D01*
X02238Y012391D01*
X022276Y012447D01*
X022224Y012463D01*
Y012755D01*
X022776Y013308D01*
X022911D01*
Y013494D01*
X022916Y013521D01*
X022911Y013548D01*
Y013735D01*
X022564D01*
Y0137D01*
X021488D01*
X021384Y013804D01*
Y014618D01*
X021447Y014627D01*
X021532Y014662D01*
X021605Y014718D01*
X021661Y014791D01*
X021696Y014876D01*
X021708Y014968D01*
X021696Y015059D01*
X021661Y015144D01*
X021605Y015217D01*
X021532Y015273D01*
X021447Y015309D01*
X021355Y015321D01*
X021055D01*
X020964Y015309D01*
X020879Y015273D01*
X020806Y015217D01*
X020749Y015144D01*
X020714Y015059D01*
X020702Y014968D01*
X020714Y014876D01*
X020749Y014791D01*
X020806Y014718D01*
X020879Y014662D01*
X020964Y014627D01*
X021027Y014618D01*
Y01373D01*
X02104Y013661D01*
X021079Y013604D01*
X021287Y013395D01*
X021287Y013395D01*
X021345Y013356D01*
X021414Y013343D01*
X021414Y013343D01*
X022241D01*
X022261Y013297D01*
X021919Y012955D01*
X02188Y012897D01*
X021867Y012829D01*
Y012463D01*
X021814Y012447D01*
X02171Y012391D01*
X021619Y012316D01*
X021544Y012225D01*
X021488Y01212D01*
X021454Y012007D01*
X021442Y01189D01*
X021454Y011772D01*
X021488Y011659D01*
X021544Y011555D01*
X021619Y011463D01*
X02171Y011388D01*
X02179Y011346D01*
Y011252D01*
X02181Y011155D01*
X021865Y011072D01*
X022084Y010852D01*
X022065Y010806D01*
X01912D01*
X01828Y011646D01*
X018306Y011733D01*
X018318Y011851D01*
X018306Y011968D01*
X018272Y012082D01*
X018216Y012186D01*
X018141Y012277D01*
X01805Y012352D01*
X017946Y012408D01*
X017894Y012424D01*
Y01285D01*
X018351Y013308D01*
X018485D01*
Y013494D01*
X018491Y013521D01*
X018485Y013548D01*
Y013735D01*
X018139D01*
Y0137D01*
X017415D01*
X017134Y013981D01*
Y014668D01*
X017197Y014677D01*
X017282Y014712D01*
X017355Y014768D01*
X017411Y014841D01*
X017446Y014926D01*
X017458Y015018D01*
X017446Y015109D01*
X017411Y015194D01*
X017355Y015267D01*
X017282Y015323D01*
X017197Y015359D01*
X017105Y015371D01*
X016805D01*
X016714Y015359D01*
X016629Y015323D01*
X016556Y015267D01*
X016499Y015194D01*
X016464Y015109D01*
X016452Y015018D01*
X016464Y014926D01*
X016499Y014841D01*
X016556Y014768D01*
X016629Y014712D01*
X016714Y014677D01*
X016777Y014668D01*
Y013907D01*
X01679Y013839D01*
X016829Y013781D01*
X017215Y013395D01*
X017215Y013395D01*
X017273Y013356D01*
X017341Y013343D01*
X017341Y013343D01*
X017816D01*
X017835Y013297D01*
X017589Y01305D01*
X01755Y012992D01*
X017537Y012924D01*
Y012424D01*
X017484Y012408D01*
X01738Y012352D01*
X017289Y012277D01*
X017214Y012186D01*
X017158Y012082D01*
X017124Y011968D01*
X017112Y011851D01*
X017124Y011733D01*
X017158Y01162D01*
X017214Y011516D01*
X017289Y011424D01*
X01738Y011349D01*
X017484Y011294D01*
X017598Y011259D01*
X017715Y011248D01*
X017833Y011259D01*
X01792Y011286D01*
X018353Y010852D01*
X018334Y010806D01*
X014751D01*
X01395Y011607D01*
X013976Y011693D01*
X013988Y011811D01*
X013976Y011929D01*
X013942Y012042D01*
X013886Y012146D01*
X013811Y012237D01*
X01372Y012312D01*
X013616Y012368D01*
X013564Y012384D01*
Y012609D01*
X014262Y013308D01*
X014396D01*
Y013494D01*
X014402Y013521D01*
X014396Y013548D01*
Y013735D01*
X01405D01*
Y0137D01*
X013039D01*
X012784Y013955D01*
Y014668D01*
X012847Y014677D01*
X012932Y014712D01*
X013005Y014768D01*
X013061Y014841D01*
X013096Y014926D01*
X013108Y015018D01*
X013096Y015109D01*
X013061Y015194D01*
X013005Y015267D01*
X012932Y015323D01*
X012847Y015359D01*
X012755Y015371D01*
X012455D01*
X012364Y015359D01*
X012279Y015323D01*
X012206Y015267D01*
X012149Y015194D01*
X012114Y015109D01*
X012102Y015018D01*
X012114Y014926D01*
X012149Y014841D01*
X012206Y014768D01*
X012279Y014712D01*
X012364Y014677D01*
X012427Y014668D01*
Y013881D01*
X01244Y013813D01*
X012479Y013755D01*
X012839Y013395D01*
X012897Y013356D01*
X012965Y013343D01*
X013727D01*
X013746Y013297D01*
X013259Y012809D01*
X01322Y012751D01*
X013207Y012683D01*
Y012384D01*
X013154Y012368D01*
X01305Y012312D01*
X012959Y012237D01*
X012884Y012146D01*
X012828Y012042D01*
X012794Y011929D01*
X012782Y011811D01*
X012794Y011693D01*
X012828Y01158D01*
X012884Y011476D01*
X012959Y011385D01*
X01305Y01131D01*
X013154Y011254D01*
X013268Y01122D01*
X013385Y011208D01*
X013503Y01122D01*
X01359Y011246D01*
X014465Y010371D01*
X014547Y010316D01*
X014645Y010296D01*
X027635D01*
X027685Y010286D01*
X044747D01*
X044844Y010306D01*
X044927Y010361D01*
X046056Y01149D01*
X046111Y011573D01*
X046131Y01167D01*
Y020413D01*
Y023504D01*
X046784D01*
X046788Y0235D01*
X046826Y023484D01*
X046864Y0235D01*
X046864Y0235D01*
X046933Y023569D01*
X046949Y023607D01*
X046949Y023607D01*
Y025123D01*
X046933Y025161D01*
X046895Y025177D01*
D02*
G37*
G36*
X02109Y023647D02*
X020702D01*
X020707Y023619D01*
X020749Y023556D01*
X020755Y023541D01*
Y023509D01*
X020749Y023494D01*
X020707Y023432D01*
X020702Y023404D01*
X02109D01*
X021084Y023432D01*
X021042Y023494D01*
X021036Y023509D01*
Y023541D01*
X021042Y023556D01*
X021084Y023619D01*
X02109Y023647D01*
D02*
G37*
G36*
Y023304D02*
X020702D01*
X020707Y023276D01*
X020749Y023213D01*
X020755Y023198D01*
Y023166D01*
X020749Y023151D01*
X020707Y023089D01*
X020702Y023061D01*
X02109D01*
X021084Y023089D01*
X021042Y023151D01*
X021036Y023166D01*
Y023198D01*
X021042Y023213D01*
X021084Y023276D01*
X02109Y023304D01*
D02*
G37*
G36*
Y022961D02*
X020702D01*
X020707Y022932D01*
X020749Y02287D01*
X020755Y022855D01*
Y022823D01*
X020749Y022808D01*
X020707Y022745D01*
X020702Y022717D01*
X02109D01*
X021084Y022745D01*
X021042Y022808D01*
X021036Y022823D01*
Y022855D01*
X021042Y02287D01*
X021084Y022932D01*
X02109Y022961D01*
D02*
G37*
G36*
X011681Y022961D02*
Y022538D01*
X012104D01*
X012094Y022612D01*
X012046Y022728D01*
X01197Y022827D01*
X011871Y022903D01*
X011755Y022951D01*
X011681Y022961D01*
D02*
G37*
G36*
X011581D02*
X011507Y022951D01*
X011392Y022903D01*
X011292Y022827D01*
X011216Y022728D01*
X011168Y022612D01*
X011159Y022538D01*
X011581D01*
Y022961D01*
D02*
G37*
G36*
X02109Y022617D02*
X020946D01*
Y022473D01*
X020974Y022479D01*
X02104Y022523D01*
X021084Y022589D01*
X02109Y022617D01*
D02*
G37*
G36*
X020846D02*
X020702D01*
X020707Y022589D01*
X020751Y022523D01*
X020818Y022479D01*
X020846Y022473D01*
Y022617D01*
D02*
G37*
G36*
X012104Y022438D02*
X011681D01*
Y022016D01*
X011755Y022025D01*
X011871Y022073D01*
X01197Y022149D01*
X012046Y022249D01*
X012094Y022364D01*
X012104Y022438D01*
D02*
G37*
G36*
X011581D02*
X011159D01*
X011168Y022364D01*
X011216Y022249D01*
X011292Y022149D01*
X011392Y022073D01*
X011507Y022025D01*
X011581Y022016D01*
Y022438D01*
D02*
G37*
G36*
X027274Y024387D02*
X027196Y024371D01*
X027129Y024327D01*
X027085Y024261D01*
X02707Y024183D01*
X027085Y024105D01*
X027129Y024039D01*
X027196Y023995D01*
X027213Y023991D01*
X02744Y023765D01*
Y023293D01*
X027453Y023225D01*
X027492Y023167D01*
X027931Y022728D01*
X027931Y022728D01*
X027989Y022689D01*
X028057Y022676D01*
X029906D01*
X030763Y021819D01*
X030766Y021802D01*
X030811Y021736D01*
X030877Y021692D01*
X030955Y021676D01*
X031033Y021692D01*
X031099Y021736D01*
X031143Y021802D01*
X031159Y02188D01*
X031143Y021958D01*
X031099Y022024D01*
X031033Y022068D01*
X031015Y022072D01*
X030106Y02298D01*
X030049Y023019D01*
X02998Y023033D01*
X028131D01*
X027797Y023367D01*
Y023839D01*
X027797Y023839D01*
X027783Y023907D01*
X027744Y023965D01*
X027744Y023965D01*
X027466Y024244D01*
X027462Y024261D01*
X027418Y024327D01*
X027352Y024371D01*
X027274Y024387D01*
D02*
G37*
G36*
X01128Y021375D02*
Y021231D01*
X011424D01*
X011419Y021259D01*
X011375Y021325D01*
X011308Y02137D01*
X01128Y021375D01*
D02*
G37*
G36*
X01118D02*
X011152Y02137D01*
X011086Y021325D01*
X011042Y021259D01*
X011036Y021231D01*
X01118D01*
Y021375D01*
D02*
G37*
G36*
X025365Y021139D02*
Y020995D01*
X025509D01*
X025503Y021023D01*
X025459Y021089D01*
X025393Y021133D01*
X025365Y021139D01*
D02*
G37*
G36*
X02067D02*
Y020995D01*
X020814D01*
X020808Y021023D01*
X020764Y021089D01*
X020698Y021133D01*
X02067Y021139D01*
D02*
G37*
G36*
X011424Y021131D02*
X01128D01*
Y020987D01*
X011308Y020993D01*
X011375Y021037D01*
X011419Y021103D01*
X011424Y021131D01*
D02*
G37*
G36*
X01118D02*
X011036D01*
X011042Y021103D01*
X011086Y021037D01*
X011152Y020993D01*
X01118Y020987D01*
Y021131D01*
D02*
G37*
G36*
X040845Y021887D02*
X039745D01*
Y020987D01*
X040845D01*
Y021887D01*
D02*
G37*
G36*
X043309Y021863D02*
X043109D01*
X042991Y021848D01*
X042882Y021803D01*
X042788Y02173D01*
X042716Y021636D01*
X04267Y021527D01*
X042655Y021409D01*
X04267Y021292D01*
X042716Y021183D01*
X042788Y021089D01*
X042882Y021016D01*
X042991Y020971D01*
X043109Y020956D01*
X043309D01*
X043426Y020971D01*
X043536Y021016D01*
X04363Y021089D01*
X043702Y021183D01*
X043747Y021292D01*
X043763Y021409D01*
X043747Y021527D01*
X043702Y021636D01*
X04363Y02173D01*
X043536Y021803D01*
X043426Y021848D01*
X043309Y021863D01*
D02*
G37*
G36*
X015975Y02107D02*
Y020926D01*
X016119D01*
X016114Y020954D01*
X016069Y02102D01*
X016003Y021064D01*
X015975Y02107D01*
D02*
G37*
G36*
X015875D02*
X015847Y021064D01*
X015781Y02102D01*
X015737Y020954D01*
X015731Y020926D01*
X015875D01*
Y02107D01*
D02*
G37*
G36*
X029826Y02124D02*
X029526D01*
Y020915D01*
X029826D01*
Y02124D01*
D02*
G37*
G36*
X029426D02*
X029126D01*
Y020915D01*
X029426D01*
Y02124D01*
D02*
G37*
G36*
X024704D02*
X024404D01*
Y020915D01*
X024704D01*
Y02124D01*
D02*
G37*
G36*
X019982D02*
X019682D01*
Y020915D01*
X019982D01*
Y02124D01*
D02*
G37*
G36*
X015661D02*
X015361D01*
Y020915D01*
X015661D01*
Y02124D01*
D02*
G37*
G36*
X015261D02*
X014961D01*
Y020915D01*
X015261D01*
Y02124D01*
D02*
G37*
G36*
X025509Y020895D02*
X025365D01*
Y020751D01*
X025393Y020756D01*
X025459Y020801D01*
X025503Y020867D01*
X025509Y020895D01*
D02*
G37*
G36*
X025104Y02124D02*
X024804D01*
Y020865D01*
Y02049D01*
X025104D01*
Y020811D01*
X025154Y020826D01*
X025171Y020801D01*
X025237Y020756D01*
X025265Y020751D01*
Y020945D01*
Y021139D01*
X025237Y021133D01*
X025171Y021089D01*
X025154Y021064D01*
X025104Y021079D01*
Y02124D01*
D02*
G37*
G36*
X020814Y020895D02*
X02067D01*
Y020751D01*
X020698Y020756D01*
X020764Y020801D01*
X020808Y020867D01*
X020814Y020895D01*
D02*
G37*
G36*
X020382Y02124D02*
X020082D01*
Y020865D01*
Y02049D01*
X020382D01*
Y020859D01*
X020432Y020867D01*
X020476Y020801D01*
X020542Y020756D01*
X02057Y020751D01*
Y020945D01*
Y021139D01*
X020542Y021133D01*
X020476Y021089D01*
X020432Y021023D01*
X020382Y021031D01*
Y02124D01*
D02*
G37*
G36*
X016119Y020826D02*
X015975D01*
Y020682D01*
X016003Y020688D01*
X016069Y020732D01*
X016114Y020798D01*
X016119Y020826D01*
D02*
G37*
G36*
X015875D02*
X015731D01*
X015737Y020798D01*
X015781Y020732D01*
X015847Y020688D01*
X015875Y020682D01*
Y020826D01*
D02*
G37*
G36*
X029826Y020815D02*
X029526D01*
Y02049D01*
X029826D01*
Y020815D01*
D02*
G37*
G36*
X029426D02*
X029126D01*
Y02049D01*
X029426D01*
Y020815D01*
D02*
G37*
G36*
X024704D02*
X024404D01*
Y02049D01*
X024704D01*
Y020815D01*
D02*
G37*
G36*
X019982D02*
X019682D01*
Y02049D01*
X019982D01*
Y020815D01*
D02*
G37*
G36*
X015661D02*
X015361D01*
Y02049D01*
X015661D01*
Y020815D01*
D02*
G37*
G36*
X015261D02*
X014961D01*
Y02049D01*
X015261D01*
Y020815D01*
D02*
G37*
G36*
X028876Y02119D02*
X028276D01*
Y02054D01*
X028402D01*
Y02006D01*
X028352Y02006D01*
X028104Y020308D01*
Y020518D01*
X02811Y020522D01*
X028143Y020571D01*
X028155Y02063D01*
X028143Y020688D01*
X02811Y020738D01*
X028061Y020771D01*
X028002Y020783D01*
X027943Y020771D01*
X027894Y020738D01*
X027861Y020688D01*
X027849Y02063D01*
X027861Y020571D01*
X027894Y020522D01*
X0279Y020518D01*
Y020266D01*
X027908Y020227D01*
X02793Y020194D01*
X028208Y019916D01*
Y019231D01*
X028407D01*
Y01749D01*
X028209D01*
Y01684D01*
X028809D01*
Y01749D01*
X028611D01*
Y019231D01*
X0288D01*
Y02006D01*
X028606D01*
Y02054D01*
X028876D01*
Y02119D01*
D02*
G37*
G36*
X024154D02*
X023554D01*
Y02054D01*
X02368D01*
Y02006D01*
X02363Y02006D01*
X023482Y020208D01*
X023463Y020256D01*
X023496Y020306D01*
X023508Y020364D01*
X023496Y020423D01*
X023463Y020472D01*
X023413Y020505D01*
X023355Y020517D01*
X023296Y020505D01*
X023247Y020472D01*
X023213Y020423D01*
X023202Y020364D01*
X023213Y020306D01*
X023245Y020259D01*
Y0202D01*
X023252Y020161D01*
X023274Y020127D01*
X023486Y019916D01*
Y019231D01*
X023658D01*
Y017549D01*
X02346D01*
Y016899D01*
X02406D01*
Y017549D01*
X023862D01*
Y019231D01*
X024078D01*
Y02006D01*
X023884D01*
Y02054D01*
X024154D01*
Y02119D01*
D02*
G37*
G36*
X019432D02*
X018832D01*
Y02054D01*
X018959D01*
Y02006D01*
X018909Y02006D01*
X018844Y020125D01*
X018837Y020177D01*
X01887Y020227D01*
X018882Y020285D01*
X01887Y020344D01*
X018837Y020394D01*
X018787Y020427D01*
X018729Y020438D01*
X01867Y020427D01*
X018621Y020394D01*
X018587Y020344D01*
X018576Y020285D01*
X018587Y020227D01*
X018619Y02018D01*
Y020104D01*
X018626Y020065D01*
X018648Y020032D01*
X018764Y019916D01*
Y019231D01*
X018978D01*
Y017599D01*
X01878D01*
Y016949D01*
X01938D01*
Y017599D01*
X019182D01*
Y019231D01*
X019357D01*
Y02006D01*
X019162D01*
Y02054D01*
X019432D01*
Y02119D01*
D02*
G37*
G36*
X014711D02*
X014111D01*
Y02054D01*
X014237D01*
Y02006D01*
X014187Y02006D01*
X014112Y020135D01*
X014103Y020187D01*
X014136Y020237D01*
X014147Y020295D01*
X014136Y020354D01*
X014103Y020403D01*
X014053Y020437D01*
X013994Y020448D01*
X013936Y020437D01*
X013886Y020403D01*
X013853Y020354D01*
X013842Y020295D01*
X013853Y020237D01*
X013884Y02019D01*
Y020116D01*
X013892Y020077D01*
X013914Y020044D01*
X014043Y019916D01*
Y019231D01*
X014271D01*
Y017628D01*
X014073D01*
Y016978D01*
X014673D01*
Y017628D01*
X014475D01*
Y019231D01*
X014635D01*
Y02006D01*
X014441D01*
Y02054D01*
X014711D01*
Y02119D01*
D02*
G37*
G36*
X025408Y02011D02*
X025112D01*
Y019696D01*
X025408D01*
Y02011D01*
D02*
G37*
G36*
X025012D02*
X024716D01*
Y019696D01*
X025012D01*
Y02011D01*
D02*
G37*
G36*
X03013D02*
X029833D01*
Y019696D01*
X03013D01*
Y02011D01*
D02*
G37*
G36*
X020686D02*
X02039D01*
Y019696D01*
X020686D01*
Y02011D01*
D02*
G37*
G36*
X015964D02*
X015668D01*
Y019696D01*
X015964D01*
Y02011D01*
D02*
G37*
G36*
X029733D02*
X029437D01*
Y019696D01*
X029733D01*
Y02011D01*
D02*
G37*
G36*
X02029D02*
X019994D01*
Y019696D01*
X02029D01*
Y02011D01*
D02*
G37*
G36*
X015568D02*
X015272D01*
Y019696D01*
X015568D01*
Y02011D01*
D02*
G37*
G36*
X03013Y019596D02*
X029833D01*
Y019181D01*
X03013D01*
Y019596D01*
D02*
G37*
G36*
X029733D02*
X029437D01*
Y019181D01*
X029733D01*
Y019596D01*
D02*
G37*
G36*
X025408Y019596D02*
X025112D01*
Y019181D01*
X025408D01*
Y019596D01*
D02*
G37*
G36*
X025012D02*
X024716D01*
Y019181D01*
X025012D01*
Y019596D01*
D02*
G37*
G36*
X020686Y019596D02*
X02039D01*
Y019181D01*
X020686D01*
Y019596D01*
D02*
G37*
G36*
X02029D02*
X019994D01*
Y019181D01*
X02029D01*
Y019596D01*
D02*
G37*
G36*
X015964D02*
X015668D01*
Y019181D01*
X015964D01*
Y019596D01*
D02*
G37*
G36*
X015568D02*
X015272D01*
Y019181D01*
X015568D01*
Y019596D01*
D02*
G37*
G36*
X040395Y019891D02*
X040195D01*
X040078Y019875D01*
X039968Y01983D01*
X039874Y019758D01*
X039802Y019664D01*
X039757Y019554D01*
X039741Y019437D01*
X039757Y01932D01*
X039802Y01921D01*
X039874Y019116D01*
X039968Y019044D01*
X040078Y018999D01*
X040195Y018983D01*
X040395D01*
X040513Y018999D01*
X040622Y019044D01*
X040716Y019116D01*
X040788Y01921D01*
X040834Y01932D01*
X040849Y019437D01*
X040834Y019554D01*
X040788Y019664D01*
X040716Y019758D01*
X040622Y01983D01*
X040513Y019875D01*
X040395Y019891D01*
D02*
G37*
G36*
X043759Y019859D02*
X042659D01*
Y018959D01*
X043759D01*
Y019859D01*
D02*
G37*
G36*
X031654Y031182D02*
X031585Y031169D01*
X031527Y03113D01*
X031262Y030864D01*
X031223Y030806D01*
X031209Y030738D01*
Y027244D01*
X031223Y027176D01*
X031262Y027118D01*
X031875Y026505D01*
X031879Y026487D01*
X031923Y026421D01*
X031989Y026377D01*
X032067Y026361D01*
X032145Y026377D01*
X03216Y026387D01*
X034816D01*
X035678Y025525D01*
Y023199D01*
X035691Y023131D01*
X03573Y023073D01*
X037312Y021491D01*
Y017736D01*
X037325Y017668D01*
X037364Y01761D01*
X037422Y017571D01*
X03749Y017558D01*
X037558Y017571D01*
X037616Y01761D01*
X037655Y017668D01*
X037669Y017736D01*
Y021565D01*
X037655Y021633D01*
X037616Y021691D01*
X036035Y023273D01*
Y025599D01*
X036035Y025599D01*
X036021Y025667D01*
X035982Y025725D01*
X035982Y025725D01*
X035016Y026691D01*
X034958Y02673D01*
X03489Y026743D01*
X03216D01*
X032145Y026753D01*
X032127Y026757D01*
X031566Y027318D01*
Y030664D01*
X03178Y030878D01*
X031818Y030936D01*
X031832Y031004D01*
X031818Y031072D01*
X03178Y03113D01*
X031722Y031169D01*
X031654Y031182D01*
D02*
G37*
G36*
X029425Y016769D02*
Y016625D01*
X029569D01*
X029564Y016653D01*
X029519Y016719D01*
X029453Y016763D01*
X029425Y016769D01*
D02*
G37*
G36*
X029325D02*
X029297Y016763D01*
X029231Y016719D01*
X029187Y016653D01*
X029181Y016625D01*
X029325D01*
Y016769D01*
D02*
G37*
G36*
X029569Y016525D02*
X029425D01*
Y016381D01*
X029453Y016386D01*
X029519Y016431D01*
X029564Y016497D01*
X029569Y016525D01*
D02*
G37*
G36*
X029325D02*
X029181D01*
X029187Y016497D01*
X029231Y016431D01*
X029297Y016386D01*
X029325Y016381D01*
Y016525D01*
D02*
G37*
G36*
X02028Y017599D02*
X01968D01*
Y017118D01*
X019259Y016696D01*
X017532D01*
X017493Y016689D01*
X01746Y016667D01*
X017157Y016364D01*
X017105Y016371D01*
X016805D01*
X016714Y016359D01*
X016629Y016323D01*
X016556Y016267D01*
X016499Y016194D01*
X016464Y016109D01*
X016452Y016018D01*
X016464Y015926D01*
X016499Y015841D01*
X016556Y015768D01*
X016629Y015712D01*
X016714Y015677D01*
X016805Y015665D01*
X017105D01*
X017197Y015677D01*
X017282Y015712D01*
X017355Y015768D01*
X017411Y015841D01*
X017446Y015926D01*
X017458Y016018D01*
X017446Y016109D01*
X017411Y016194D01*
X017355Y016267D01*
X017354Y016273D01*
X017574Y016493D01*
X019301D01*
X01934Y0165D01*
X019373Y016522D01*
X0198Y016949D01*
X02028D01*
Y017599D01*
D02*
G37*
G36*
X015573Y017628D02*
X014973D01*
Y017147D01*
X014482Y016657D01*
X013143D01*
X013104Y016649D01*
X01307Y016627D01*
X012807Y016364D01*
X012755Y016371D01*
X012455D01*
X012364Y016359D01*
X012279Y016323D01*
X012206Y016267D01*
X012149Y016194D01*
X012114Y016109D01*
X012102Y016018D01*
X012114Y015926D01*
X012149Y015841D01*
X012206Y015768D01*
X012279Y015712D01*
X012364Y015677D01*
X012455Y015665D01*
X012755D01*
X012847Y015677D01*
X012932Y015712D01*
X013005Y015768D01*
X013061Y015841D01*
X013096Y015926D01*
X013108Y016018D01*
X013096Y016109D01*
X013061Y016194D01*
X013005Y016267D01*
X013004Y016273D01*
X013185Y016453D01*
X014525D01*
X014564Y016461D01*
X014597Y016483D01*
X015092Y016978D01*
X015573D01*
Y017628D01*
D02*
G37*
G36*
X029709Y01749D02*
X029109D01*
Y01701D01*
X028796Y016696D01*
X026082D01*
X026043Y016689D01*
X02601Y016667D01*
X025657Y016314D01*
X025605Y016321D01*
X025305D01*
X025214Y016309D01*
X025129Y016273D01*
X025056Y016217D01*
X024999Y016144D01*
X024964Y016059D01*
X024952Y015968D01*
X024964Y015876D01*
X024999Y015791D01*
X025056Y015718D01*
X025129Y015662D01*
X025214Y015627D01*
X025305Y015615D01*
X025605D01*
X025697Y015627D01*
X025782Y015662D01*
X025855Y015718D01*
X025911Y015791D01*
X025946Y015876D01*
X025958Y015968D01*
X025946Y016059D01*
X025911Y016144D01*
X025855Y016217D01*
X025854Y016223D01*
X026124Y016493D01*
X028839D01*
X028878Y0165D01*
X028911Y016522D01*
X029229Y01684D01*
X029709D01*
Y01749D01*
D02*
G37*
G36*
X02496Y017549D02*
X02436D01*
Y017069D01*
X024066Y016775D01*
X021911D01*
X021872Y016767D01*
X021839Y016745D01*
X021407Y016314D01*
X021355Y016321D01*
X021055D01*
X020964Y016309D01*
X020879Y016273D01*
X020806Y016217D01*
X020749Y016144D01*
X020714Y016059D01*
X020702Y015968D01*
X020714Y015876D01*
X020749Y015791D01*
X020806Y015718D01*
X020879Y015662D01*
X020964Y015627D01*
X021055Y015615D01*
X021355D01*
X021447Y015627D01*
X021532Y015662D01*
X021605Y015718D01*
X021661Y015791D01*
X021696Y015876D01*
X021708Y015968D01*
X021696Y016059D01*
X021661Y016144D01*
X021605Y016217D01*
X021604Y016223D01*
X021953Y016571D01*
X024109D01*
X024148Y016579D01*
X024181Y016601D01*
X024479Y016899D01*
X02496D01*
Y017549D01*
D02*
G37*
G36*
X040845Y017198D02*
X039745D01*
Y016298D01*
X040845D01*
Y017198D01*
D02*
G37*
G36*
X038297Y018186D02*
X038219Y018171D01*
X038153Y018126D01*
X038109Y01806D01*
X038093Y017982D01*
X038109Y017904D01*
X038119Y017889D01*
Y015015D01*
X037964Y01486D01*
X03769Y014586D01*
X037672Y014582D01*
X037606Y014538D01*
X037562Y014472D01*
X037546Y014394D01*
X037562Y014316D01*
X037606Y01425D01*
X037672Y014205D01*
X03775Y01419D01*
X037828Y014205D01*
X037894Y01425D01*
X037938Y014316D01*
X037942Y014333D01*
X038164Y014556D01*
X039788D01*
X039802Y014521D01*
X039874Y014427D01*
X039968Y014355D01*
X040078Y01431D01*
X040195Y014294D01*
X040395D01*
X040513Y01431D01*
X040622Y014355D01*
X040716Y014427D01*
X040788Y014521D01*
X040803Y014556D01*
X041516D01*
X041584Y014569D01*
X041642Y014608D01*
X041937Y014903D01*
X041937Y014903D01*
X041976Y014961D01*
X041989Y01503D01*
Y015989D01*
X04257Y01657D01*
X042735D01*
X042755Y016521D01*
X042827Y016427D01*
X042921Y016355D01*
X043031Y01631D01*
X043148Y016294D01*
X043348D01*
X043466Y01631D01*
X043575Y016355D01*
X043669Y016427D01*
X043741Y016521D01*
X043786Y016631D01*
X043802Y016748D01*
X043786Y016866D01*
X043741Y016975D01*
X043669Y017069D01*
X043575Y017141D01*
X043466Y017186D01*
X043348Y017202D01*
X043148D01*
X043031Y017186D01*
X042921Y017141D01*
X042827Y017069D01*
X042755Y016975D01*
X042735Y016926D01*
X042496D01*
X042428Y016913D01*
X04237Y016874D01*
X041685Y016189D01*
X041646Y016131D01*
X041633Y016063D01*
Y015103D01*
X041442Y014913D01*
X040814D01*
X040788Y014975D01*
X040716Y015069D01*
X040622Y015141D01*
X040513Y015186D01*
X040395Y015202D01*
X040195D01*
X040078Y015186D01*
X039968Y015141D01*
X039874Y015069D01*
X039802Y014975D01*
X039776Y014913D01*
X038499D01*
X038476Y014941D01*
Y017889D01*
X038486Y017904D01*
X038501Y017982D01*
X038486Y01806D01*
X038441Y018126D01*
X038375Y018171D01*
X038297Y018186D01*
D02*
G37*
G36*
X020105Y016371D02*
X019805D01*
X019714Y016359D01*
X019629Y016323D01*
X019556Y016267D01*
X019499Y016194D01*
X019464Y016109D01*
X019452Y016018D01*
X019464Y015926D01*
X019499Y015841D01*
X019556Y015768D01*
X019629Y015712D01*
X019714Y015677D01*
X019805Y015665D01*
X020105D01*
X020197Y015677D01*
X020282Y015712D01*
X020355Y015768D01*
X020411Y015841D01*
X020446Y015926D01*
X020458Y016018D01*
X020446Y016109D01*
X020411Y016194D01*
X020355Y016267D01*
X020282Y016323D01*
X020197Y016359D01*
X020105Y016371D01*
D02*
G37*
G36*
X015755D02*
X015455D01*
X015364Y016359D01*
X015279Y016323D01*
X015206Y016267D01*
X015149Y016194D01*
X015114Y016109D01*
X015102Y016018D01*
X015114Y015926D01*
X015149Y015841D01*
X015206Y015768D01*
X015279Y015712D01*
X015364Y015677D01*
X015455Y015665D01*
X015755D01*
X015847Y015677D01*
X015932Y015712D01*
X016005Y015768D01*
X016061Y015841D01*
X016096Y015926D01*
X016108Y016018D01*
X016096Y016109D01*
X016061Y016194D01*
X016005Y016267D01*
X015932Y016323D01*
X015847Y016359D01*
X015755Y016371D01*
D02*
G37*
G36*
X028605Y016321D02*
X028305D01*
X028214Y016309D01*
X028129Y016273D01*
X028056Y016217D01*
X027999Y016144D01*
X027964Y016059D01*
X027952Y015968D01*
X027964Y015876D01*
X027999Y015791D01*
X028056Y015718D01*
X028129Y015662D01*
X028214Y015627D01*
X028305Y015615D01*
X028605D01*
X028697Y015627D01*
X028782Y015662D01*
X028855Y015718D01*
X028911Y015791D01*
X028946Y015876D01*
X028958Y015968D01*
X028946Y016059D01*
X028911Y016144D01*
X028855Y016217D01*
X028782Y016273D01*
X028697Y016309D01*
X028605Y016321D01*
D02*
G37*
G36*
X024355D02*
X024055D01*
X023964Y016309D01*
X023879Y016273D01*
X023806Y016217D01*
X023749Y016144D01*
X023714Y016059D01*
X023702Y015968D01*
X023714Y015876D01*
X023749Y015791D01*
X023806Y015718D01*
X023879Y015662D01*
X023964Y015627D01*
X024055Y015615D01*
X024355D01*
X024447Y015627D01*
X024532Y015662D01*
X024605Y015718D01*
X024661Y015791D01*
X024696Y015876D01*
X024708Y015968D01*
X024696Y016059D01*
X024661Y016144D01*
X024605Y016217D01*
X024532Y016273D01*
X024447Y016309D01*
X024355Y016321D01*
D02*
G37*
G36*
X043348Y016202D02*
X043148D01*
X043031Y016186D01*
X042921Y016141D01*
X042827Y016069D01*
X042755Y015975D01*
X04271Y015866D01*
X042694Y015748D01*
X04271Y015631D01*
X042755Y015521D01*
X042827Y015427D01*
X042921Y015355D01*
X043031Y01531D01*
X043148Y015294D01*
X043348D01*
X043466Y01531D01*
X043575Y015355D01*
X043669Y015427D01*
X043741Y015521D01*
X043786Y015631D01*
X043802Y015748D01*
X043786Y015866D01*
X043741Y015975D01*
X043669Y016069D01*
X043575Y016141D01*
X043466Y016186D01*
X043348Y016202D01*
D02*
G37*
G36*
X040395D02*
X040195D01*
X040078Y016186D01*
X039968Y016141D01*
X039874Y016069D01*
X039802Y015975D01*
X039757Y015866D01*
X039741Y015748D01*
X039757Y015631D01*
X039802Y015521D01*
X039874Y015427D01*
X039968Y015355D01*
X040078Y01531D01*
X040195Y015294D01*
X040395D01*
X040513Y01531D01*
X040622Y015355D01*
X040716Y015427D01*
X040788Y015521D01*
X040834Y015631D01*
X040849Y015748D01*
X040834Y015866D01*
X040788Y015975D01*
X040716Y016069D01*
X040622Y016141D01*
X040513Y016186D01*
X040395Y016202D01*
D02*
G37*
G36*
X018783Y016193D02*
X018133D01*
Y015593D01*
X018783D01*
Y015791D01*
X019038D01*
X019425Y015403D01*
X019455Y015368D01*
X019455D01*
X019455Y015368D01*
Y014668D01*
X020455D01*
Y015368D01*
X019749D01*
X019152Y015965D01*
X019119Y015987D01*
X01908Y015995D01*
X018783D01*
Y016193D01*
D02*
G37*
G36*
X014439D02*
X013789D01*
Y015593D01*
X014439D01*
Y015791D01*
X014557D01*
X015105Y015243D01*
Y014668D01*
X016105D01*
Y015368D01*
X015269D01*
X014671Y015965D01*
X014638Y015987D01*
X014599Y015995D01*
X014439D01*
Y016193D01*
D02*
G37*
G36*
X027471D02*
X026821D01*
Y015593D01*
X027471D01*
Y015737D01*
X027521Y015758D01*
X027925Y015353D01*
X027955Y015318D01*
X027955D01*
X027955Y015318D01*
Y014618D01*
X028955D01*
Y015318D01*
X028249D01*
X027602Y015965D01*
X027569Y015987D01*
X02753Y015995D01*
X027471D01*
Y016193D01*
D02*
G37*
G36*
X023127D02*
X022477D01*
Y015593D01*
X023127D01*
Y015791D01*
X023238D01*
X023675Y015353D01*
X023705Y015318D01*
X023705D01*
X023705Y015318D01*
Y014666D01*
X023705Y01463D01*
X023661Y014603D01*
X023145Y015119D01*
X023127Y015131D01*
Y015293D01*
X022477D01*
Y014693D01*
X023067D01*
X023597Y014162D01*
X023601Y014144D01*
X023645Y014078D01*
X023711Y014034D01*
X023789Y014019D01*
X023867Y014034D01*
X023934Y014078D01*
X023978Y014144D01*
X023993Y014222D01*
X023978Y0143D01*
X023934Y014367D01*
X023867Y014411D01*
X02385Y014414D01*
X02369Y014574D01*
X023717Y014618D01*
X02375Y014618D01*
X024705D01*
Y015318D01*
X023999D01*
X023352Y015965D01*
X023319Y015987D01*
X02328Y015995D01*
X023127D01*
Y016193D01*
D02*
G37*
G36*
X021535Y025842D02*
X021477Y02583D01*
X021427Y025797D01*
X021394Y025747D01*
X021382Y025689D01*
X021394Y02563D01*
X021427Y025581D01*
X021477Y025548D01*
X021535Y025536D01*
X021543Y025537D01*
X023714Y023366D01*
Y022326D01*
X023722Y022287D01*
X023744Y022253D01*
X02417Y021828D01*
X024203Y021805D01*
X024242Y021798D01*
X029475D01*
X03039Y020883D01*
Y01751D01*
X030398Y017471D01*
X03042Y017438D01*
X030806Y017052D01*
X030839Y01703D01*
X030878Y017022D01*
X033658D01*
X03418Y016501D01*
Y014599D01*
X034033Y014452D01*
X032671D01*
X032667Y014459D01*
X032618Y014492D01*
X032559Y014503D01*
X032501Y014492D01*
X032451Y014459D01*
X032418Y014409D01*
X032406Y01435D01*
X032418Y014292D01*
X032451Y014242D01*
X032501Y014209D01*
X032559Y014197D01*
X032618Y014209D01*
X032667Y014242D01*
X032671Y014248D01*
X034075D01*
X034114Y014256D01*
X034147Y014278D01*
X034354Y014485D01*
X034376Y014518D01*
X034383Y014557D01*
Y016543D01*
X034376Y016582D01*
X034354Y016615D01*
X033772Y017196D01*
X033739Y017218D01*
X0337Y017226D01*
X03092D01*
X030594Y017552D01*
Y020925D01*
X030586Y020964D01*
X030564Y020997D01*
X02959Y021972D01*
X029557Y021994D01*
X029518Y022002D01*
X024284D01*
X023918Y022368D01*
Y023408D01*
X02391Y023447D01*
X023888Y02348D01*
X021687Y025682D01*
X021688Y025689D01*
X021677Y025747D01*
X021644Y025797D01*
X021594Y02583D01*
X021535Y025842D01*
D02*
G37*
G36*
X043798Y015198D02*
X042698D01*
Y014298D01*
X043798D01*
Y015198D01*
D02*
G37*
G36*
X027471Y015293D02*
X026821D01*
Y014693D01*
X027193D01*
X027665Y014221D01*
X027669Y014203D01*
X027713Y014137D01*
X027779Y014093D01*
X027857Y014078D01*
X027935Y014093D01*
X028001Y014137D01*
X028046Y014203D01*
X028061Y014282D01*
X028046Y01436D01*
X028001Y014426D01*
X027935Y01447D01*
X027918Y014473D01*
X027471Y01492D01*
Y015293D01*
D02*
G37*
G36*
X018783D02*
X018133D01*
Y014693D01*
X018765D01*
X019277Y014182D01*
X01928Y014164D01*
X019324Y014098D01*
X01939Y014054D01*
X019468Y014038D01*
X019547Y014054D01*
X019613Y014098D01*
X019657Y014164D01*
X019672Y014242D01*
X019657Y01432D01*
X019613Y014386D01*
X019547Y014431D01*
X019529Y014434D01*
X018844Y015119D01*
X018786Y015158D01*
X018783Y015158D01*
Y015293D01*
D02*
G37*
G36*
X025945Y022605D02*
X025867Y02259D01*
X025801Y022546D01*
X025756Y02248D01*
X025741Y022402D01*
X025756Y022324D01*
X025801Y022257D01*
X025867Y022213D01*
X025945Y022198D01*
X026023Y022213D01*
X026089Y022257D01*
X026117Y0223D01*
X029797D01*
X031135Y020961D01*
X031168Y020939D01*
X031207Y020932D01*
X035351D01*
X036079Y020204D01*
Y014267D01*
X036037Y014239D01*
X035993Y014173D01*
X035977Y014094D01*
X035993Y014016D01*
X036037Y01395D01*
X036103Y013906D01*
X036181Y013891D01*
X036259Y013906D01*
X036325Y01395D01*
X03637Y014016D01*
X036385Y014094D01*
X03637Y014173D01*
X036325Y014239D01*
X036283Y014267D01*
Y020246D01*
X036275Y020285D01*
X036253Y020318D01*
X035466Y021106D01*
X035433Y021128D01*
X035394Y021135D01*
X03125D01*
X029911Y022474D01*
X029878Y022496D01*
X029839Y022504D01*
X026117D01*
X026089Y022546D01*
X026023Y02259D01*
X025945Y022605D01*
D02*
G37*
G36*
X014439Y015293D02*
X013789D01*
Y014693D01*
X014325D01*
X014984Y014034D01*
X014987Y014016D01*
X015031Y01395D01*
X015097Y013906D01*
X015175Y013891D01*
X015253Y013906D01*
X01532Y01395D01*
X015364Y014016D01*
X015379Y014094D01*
X015364Y014173D01*
X01532Y014239D01*
X015253Y014283D01*
X015236Y014286D01*
X014439Y015083D01*
Y015293D01*
D02*
G37*
G36*
X022087Y014328D02*
X022009Y014312D01*
X021942Y014268D01*
X021898Y014202D01*
X021883Y014124D01*
X021898Y014046D01*
X021942Y01398D01*
X022009Y013936D01*
X022087Y01392D01*
X022165Y013936D01*
X02218Y013946D01*
X022937D01*
X02344Y013442D01*
Y013308D01*
X023575D01*
X023867Y013016D01*
Y012463D01*
X023814Y012447D01*
X02371Y012391D01*
X023619Y012316D01*
X023544Y012225D01*
X023488Y01212D01*
X023454Y012007D01*
X023442Y01189D01*
X023454Y011772D01*
X023488Y011659D01*
X023544Y011555D01*
X023619Y011463D01*
X02371Y011388D01*
X023814Y011333D01*
X023928Y011298D01*
X024045Y011287D01*
X024163Y011298D01*
X024276Y011333D01*
X02438Y011388D01*
X024471Y011463D01*
X024546Y011555D01*
X024602Y011659D01*
X024636Y011772D01*
X024648Y01189D01*
X024636Y012007D01*
X024602Y01212D01*
X024546Y012225D01*
X024471Y012316D01*
X02438Y012391D01*
X024276Y012447D01*
X024224Y012463D01*
Y01309D01*
X02421Y013158D01*
X024171Y013216D01*
X024171Y013216D01*
X023787Y013601D01*
Y013735D01*
X023652D01*
X023137Y01425D01*
X023079Y014289D01*
X023011Y014302D01*
X02218D01*
X022165Y014312D01*
X022087Y014328D01*
D02*
G37*
G36*
X026417Y014377D02*
X026339Y014362D01*
X026273Y014317D01*
X026229Y014251D01*
X026213Y014173D01*
X026229Y014095D01*
X026273Y014029D01*
X026339Y013985D01*
X026362Y01398D01*
X026408Y013949D01*
X026476Y013936D01*
X026926D01*
X02742Y013442D01*
Y013308D01*
X027554D01*
X028197Y012665D01*
Y012424D01*
X028144Y012408D01*
X02804Y012352D01*
X027949Y012277D01*
X027874Y012186D01*
X027818Y012082D01*
X027784Y011968D01*
X027772Y011851D01*
X027784Y011733D01*
X027818Y01162D01*
X027874Y011516D01*
X027949Y011424D01*
X02804Y011349D01*
X028144Y011294D01*
X028258Y011259D01*
X028375Y011248D01*
X028493Y011259D01*
X028606Y011294D01*
X02871Y011349D01*
X028801Y011424D01*
X028876Y011516D01*
X028932Y01162D01*
X028966Y011733D01*
X028978Y011851D01*
X028966Y011968D01*
X028932Y012082D01*
X028876Y012186D01*
X028801Y012277D01*
X02871Y012352D01*
X028606Y012408D01*
X028554Y012424D01*
Y012739D01*
X028554Y012739D01*
X02854Y012807D01*
X028501Y012865D01*
X027766Y013601D01*
Y013735D01*
X027632D01*
X027126Y01424D01*
X027068Y014279D01*
X027Y014293D01*
X026578D01*
X026562Y014317D01*
X026495Y014362D01*
X026417Y014377D01*
D02*
G37*
G36*
X017657Y014338D02*
X017579Y014322D01*
X017513Y014278D01*
X017469Y014212D01*
X017454Y014134D01*
X017469Y014056D01*
X017513Y01399D01*
X017579Y013945D01*
X017657Y01393D01*
X017736Y013945D01*
X01775Y013955D01*
X018735D01*
X01901Y013681D01*
Y013521D01*
X019015Y013494D01*
Y013308D01*
X019149D01*
X019537Y012921D01*
Y012424D01*
X019484Y012408D01*
X01938Y012352D01*
X019289Y012277D01*
X019214Y012186D01*
X019158Y012082D01*
X019124Y011968D01*
X019112Y011851D01*
X019124Y011733D01*
X019158Y01162D01*
X019214Y011516D01*
X019289Y011424D01*
X01938Y011349D01*
X019484Y011294D01*
X019598Y011259D01*
X019715Y011248D01*
X019833Y011259D01*
X019946Y011294D01*
X02005Y011349D01*
X020141Y011424D01*
X020216Y011516D01*
X020272Y01162D01*
X020306Y011733D01*
X020318Y011851D01*
X020306Y011968D01*
X020272Y012082D01*
X020216Y012186D01*
X020141Y012277D01*
X02005Y012352D01*
X019946Y012408D01*
X019894Y012424D01*
Y012994D01*
X01988Y013063D01*
X019841Y013121D01*
X019841Y013121D01*
X019367Y013595D01*
Y013755D01*
X019367Y013755D01*
X019353Y013823D01*
X019314Y013881D01*
X019314Y013881D01*
X018935Y01426D01*
X018877Y014299D01*
X018809Y014312D01*
X01775D01*
X017736Y014322D01*
X017657Y014338D01*
D02*
G37*
G36*
X032725Y012453D02*
X032608Y012442D01*
X032494Y012407D01*
X03239Y012352D01*
X032299Y012277D01*
X032224Y012185D01*
X032168Y012081D01*
X032134Y011968D01*
X032122Y01185D01*
X032134Y011733D01*
X032168Y01162D01*
X032224Y011515D01*
X032299Y011424D01*
X03239Y011349D01*
X032494Y011293D01*
X032608Y011259D01*
X032725Y011247D01*
X032843Y011259D01*
X032956Y011293D01*
X03306Y011349D01*
X033151Y011424D01*
X033226Y011515D01*
X033282Y01162D01*
X033316Y011733D01*
X033328Y01185D01*
X033316Y011968D01*
X033282Y012081D01*
X033226Y012185D01*
X033151Y012277D01*
X03306Y012352D01*
X032956Y012407D01*
X032843Y012442D01*
X032725Y012453D01*
D02*
G37*
G36*
X030725D02*
X030608Y012442D01*
X030494Y012407D01*
X03039Y012352D01*
X030299Y012277D01*
X030224Y012185D01*
X030168Y012081D01*
X030134Y011968D01*
X030122Y01185D01*
X030134Y011733D01*
X030168Y01162D01*
X030224Y011515D01*
X030299Y011424D01*
X03039Y011349D01*
X030494Y011293D01*
X030608Y011259D01*
X030725Y011247D01*
X030843Y011259D01*
X030956Y011293D01*
X03106Y011349D01*
X031151Y011424D01*
X031226Y011515D01*
X031282Y01162D01*
X031316Y011733D01*
X031328Y01185D01*
X031316Y011968D01*
X031282Y012081D01*
X031226Y012185D01*
X031151Y012277D01*
X03106Y012352D01*
X030956Y012407D01*
X030843Y012442D01*
X030725Y012453D01*
D02*
G37*
G36*
X013425Y014367D02*
X013347Y014352D01*
X013281Y014308D01*
X013237Y014241D01*
X013221Y014163D01*
X013237Y014085D01*
X013281Y014019D01*
X013347Y013975D01*
X013425Y013959D01*
X013503Y013975D01*
X013518Y013985D01*
X014383D01*
X014926Y013442D01*
Y013308D01*
X01506D01*
X015207Y013162D01*
Y012384D01*
X015154Y012368D01*
X01505Y012312D01*
X014959Y012237D01*
X014884Y012146D01*
X014828Y012042D01*
X014794Y011929D01*
X014782Y011811D01*
X014794Y011693D01*
X014828Y01158D01*
X014884Y011476D01*
X014959Y011385D01*
X01505Y01131D01*
X015154Y011254D01*
X015267Y01122D01*
X015385Y011208D01*
X015503Y01122D01*
X015616Y011254D01*
X01572Y01131D01*
X015811Y011385D01*
X015886Y011476D01*
X015942Y01158D01*
X015976Y011693D01*
X015988Y011811D01*
X015976Y011929D01*
X015942Y012042D01*
X015886Y012146D01*
X015811Y012237D01*
X01572Y012312D01*
X015616Y012368D01*
X015564Y012384D01*
Y013235D01*
X015564Y013235D01*
X01555Y013304D01*
X015511Y013362D01*
X015272Y013601D01*
Y013735D01*
X015138D01*
X014583Y01429D01*
X014525Y014328D01*
X014457Y014342D01*
X013518D01*
X013503Y014352D01*
X013425Y014367D01*
D02*
G37*
G36*
X03687Y020671D02*
X036802Y020657D01*
X036744Y020618D01*
X036705Y02056D01*
X036692Y020492D01*
Y011811D01*
X036705Y011743D01*
X036744Y011685D01*
X037344Y011084D01*
X037344Y011084D01*
X037402Y011046D01*
X03747Y011032D01*
X043435D01*
X043503Y011046D01*
X043561Y011084D01*
X0436Y011142D01*
X043613Y011211D01*
X0436Y011279D01*
X043561Y011337D01*
X043503Y011375D01*
X043435Y011389D01*
X037544D01*
X037049Y011885D01*
Y020492D01*
X037035Y02056D01*
X036996Y020618D01*
X036938Y020657D01*
X03687Y020671D01*
D02*
G37*
G36*
X0109Y011841D02*
X010736Y011825D01*
X010578Y011777D01*
X010433Y0117D01*
X010305Y011595D01*
X0102Y011467D01*
X010123Y011322D01*
X010075Y011164D01*
X010059Y011D01*
X010075Y010836D01*
X010123Y010678D01*
X0102Y010533D01*
X010305Y010405D01*
X010433Y0103D01*
X010578Y010223D01*
X010736Y010175D01*
X0109Y010159D01*
X011064Y010175D01*
X011222Y010223D01*
X011367Y0103D01*
X011495Y010405D01*
X0116Y010533D01*
X011677Y010678D01*
X011725Y010836D01*
X011741Y011D01*
X011725Y011164D01*
X011677Y011322D01*
X0116Y011467D01*
X011495Y011595D01*
X011367Y0117D01*
X011222Y011777D01*
X011064Y011825D01*
X0109Y011841D01*
D02*
G37*
G36*
X048386Y011826D02*
X048222Y01181D01*
X048064Y011762D01*
X047918Y011684D01*
X047791Y01158D01*
X047686Y011452D01*
X047608Y011307D01*
X047561Y011149D01*
X047544Y010985D01*
X047561Y01082D01*
X047608Y010663D01*
X047686Y010517D01*
X047791Y01039D01*
X047918Y010285D01*
X048064Y010207D01*
X048222Y010159D01*
X048386Y010143D01*
X04855Y010159D01*
X048708Y010207D01*
X048853Y010285D01*
X048981Y01039D01*
X049085Y010517D01*
X049163Y010663D01*
X049211Y01082D01*
X049227Y010985D01*
X049211Y011149D01*
X049163Y011307D01*
X049085Y011452D01*
X048981Y01158D01*
X048853Y011684D01*
X048708Y011762D01*
X04855Y01181D01*
X048386Y011826D01*
D02*
G37*
%LPD*%
G36*
X046895Y023607D02*
X046826Y023538D01*
X046806Y023558D01*
X044582D01*
Y025123D01*
X046895D01*
Y023607D01*
D02*
G37*
D13*
X012185Y024882D02*
X014528D01*
X035394Y021033D02*
X036181Y020246D01*
X031207Y021033D02*
X035394D01*
X029839Y022402D02*
X031207Y021033D01*
X036181Y014094D02*
Y020246D01*
X025758Y027087D02*
Y027589D01*
Y027087D02*
X0262Y026644D01*
X039213Y030896D02*
X043978D01*
X038776Y031332D02*
X039213Y030896D01*
X038776Y031332D02*
Y0324D01*
X021535Y025689D02*
X023816Y023408D01*
Y022326D02*
Y023408D01*
X020896Y024726D02*
Y025778D01*
Y024383D02*
Y024726D01*
Y02404D02*
Y024383D01*
Y023697D02*
Y02404D01*
Y023354D02*
Y023697D01*
Y02301D02*
Y023354D01*
Y022667D02*
Y02301D01*
Y022106D02*
Y022667D01*
X020482Y021693D02*
X020896Y022106D01*
X012426Y021693D02*
X020482D01*
X011631Y022488D02*
X012426Y021693D01*
X016642Y02564D02*
X016987Y025984D01*
X014793Y02564D02*
X016642D01*
X014449Y025984D02*
X014793Y02564D01*
X027392Y025335D02*
X027539Y025187D01*
X027392Y025335D02*
Y026043D01*
X027205Y02623D02*
X027392Y026043D01*
X027539Y025187D02*
X029833D01*
X026614Y02623D02*
X027205D01*
X010889Y029946D02*
X011535D01*
X012128D01*
X043978Y030896D02*
X045425Y032343D01*
X0262Y026633D02*
Y026644D01*
X026614Y02623D01*
X029996Y032518D02*
Y032908D01*
X029685Y033219D02*
X029996Y032908D01*
X02565Y033219D02*
X029685D01*
X029996Y032518D02*
X0301Y032414D01*
X024881Y03245D02*
X02565Y033219D01*
X02485Y03245D02*
X024881D01*
X029852Y016575D02*
X030128Y01685D01*
X029375Y016575D02*
X029852D01*
X030128Y01685D02*
Y019301D01*
X029783Y019646D02*
X030128Y019301D01*
X017695Y031793D02*
X018402Y0325D01*
X012974Y031793D02*
X017695D01*
X012293Y031112D02*
X012974Y031793D01*
X012293Y030112D02*
Y031112D01*
X012128Y029946D02*
X012293Y030112D01*
X025876Y026309D02*
X0262Y026633D01*
X023031Y026309D02*
X025876D01*
X023031D02*
X023415Y025925D01*
X021427Y026309D02*
X023031D01*
X020896Y025778D02*
X021427Y026309D01*
X01123Y021181D02*
Y022087D01*
X011631Y022488D01*
X010591Y023529D02*
Y027033D01*
Y023529D02*
X011631Y022488D01*
X012621Y026358D02*
X013202Y026939D01*
X011266Y026358D02*
X012621D01*
X010591Y027033D02*
X011266Y026358D01*
X010591Y027033D02*
Y029648D01*
X010889Y029946D01*
X028507Y031821D02*
X0291Y032414D01*
X023902Y031821D02*
X028507D01*
X02034Y028259D02*
X023902Y031821D01*
X019587Y03064D02*
X022205D01*
X02034Y026467D02*
Y028259D01*
X02126Y027943D02*
X021624D01*
X024731Y03105D01*
X021368Y028455D02*
X024449Y031535D01*
X021181Y028455D02*
X021368D01*
X03654Y0324D02*
X038776D01*
X012185Y026815D02*
X012464Y027094D01*
Y027956D01*
X013425Y028917D02*
X014636Y027707D01*
X012677Y029665D02*
X013425Y028917D01*
X012464Y027956D02*
X013425Y028917D01*
X011535Y027956D02*
X012464D01*
X02753Y015893D02*
X028455Y014968D01*
X027146Y015893D02*
X02753D01*
X025945Y022402D02*
X029839D01*
X032559Y01435D02*
X034075D01*
X034281Y014557D01*
Y016543D01*
X0337Y017124D02*
X034281Y016543D01*
X030878Y017124D02*
X0337D01*
X030492Y01751D02*
X030878Y017124D01*
X030492Y01751D02*
Y020925D01*
X029518Y0219D02*
X030492Y020925D01*
X024242Y0219D02*
X029518D01*
X023816Y022326D02*
X024242Y0219D01*
X025315Y021476D02*
X029055D01*
X024764D02*
X025315D01*
Y020945D02*
Y021476D01*
X0206D02*
X024764D01*
X020059D02*
X0206D01*
Y020965D02*
X02062Y020945D01*
X0206Y020965D02*
Y021476D01*
X015925D02*
X020059D01*
X015226D02*
X015925D01*
Y020876D02*
Y021476D01*
X01123Y021181D02*
X011526Y021476D01*
X015226D01*
X020032Y02145D02*
X020059Y021476D01*
X020032Y020865D02*
Y02145D01*
X024754Y021467D02*
X024764Y021476D01*
X024754Y020865D02*
Y021467D01*
X029055Y021476D02*
X029476Y021056D01*
Y020865D02*
Y021056D01*
X015226Y021476D02*
X015311Y021392D01*
Y020865D02*
Y021392D01*
X028504Y019764D02*
Y020793D01*
X028509Y017165D02*
Y019758D01*
X028504Y019764D02*
X028509Y019758D01*
X028002Y020266D02*
X028504Y019764D01*
X028002Y020266D02*
Y02063D01*
X019498Y02625D02*
X01984Y025908D01*
X014848Y02625D02*
X019498D01*
X014636Y026462D02*
X014848Y02625D01*
X014636Y026462D02*
Y026949D01*
X011201Y025984D02*
X014449D01*
X014823Y031535D02*
X015512D01*
X01312D02*
X014823D01*
X014665Y030472D02*
X014823Y03063D01*
Y031535D01*
X016407Y03064D02*
X019587D01*
X014636Y026949D02*
Y027707D01*
X012677Y029665D02*
Y031093D01*
X01312Y031535D01*
X015512D02*
X016407Y03064D01*
X024731Y03105D02*
X031D01*
X03235Y0324D01*
X024449Y031535D02*
X030837D01*
X031191Y03189D01*
Y033002D01*
X031427Y033238D01*
X034702D01*
X03554Y0324D01*
X03435Y027037D02*
X034537Y027224D01*
X03356Y027037D02*
X03435D01*
X029783Y019646D02*
Y020557D01*
X029476Y020865D02*
X029783Y020557D01*
X028504Y020793D02*
X028576Y020865D01*
X028839Y016594D02*
X029409Y017165D01*
X026082Y016594D02*
X028839D01*
X025455Y015968D02*
X026082Y016594D01*
X02328Y015893D02*
X024205Y014968D01*
X022802Y015893D02*
X02328D01*
X021205Y015968D02*
X021911Y016673D01*
X024109D01*
X02466Y017224D01*
X023346Y0202D02*
Y020394D01*
X023782Y019764D02*
Y020793D01*
X023346Y0202D02*
X023782Y019764D01*
Y019646D02*
Y019764D01*
Y020793D02*
X023854Y020865D01*
X02376Y019623D02*
X023782Y019646D01*
X02376Y017224D02*
Y019623D01*
X025062Y019646D02*
Y020557D01*
X024754Y020865D02*
X025062Y020557D01*
X02034Y019646D02*
Y020557D01*
X020032Y020865D02*
X02034Y020557D01*
X015618Y019646D02*
Y020557D01*
X015311Y020865D02*
X015618Y020557D01*
X01872Y020104D02*
Y020315D01*
X01906Y019764D02*
Y020793D01*
X01872Y020104D02*
X01906Y019764D01*
Y019646D02*
Y019764D01*
Y020793D02*
X019132Y020865D01*
X01906Y019646D02*
X01908Y019626D01*
Y017274D02*
Y019626D01*
X014525Y016555D02*
X015273Y017303D01*
X013143Y016555D02*
X014525D01*
X012605Y016018D02*
X013143Y016555D01*
X019301Y016594D02*
X01998Y017274D01*
X017532Y016594D02*
X019301D01*
X016955Y016018D02*
X017532Y016594D01*
X01908Y015893D02*
X019955Y015018D01*
X018458Y015893D02*
X01908D01*
X011631Y024488D02*
Y025554D01*
X011201Y025984D02*
X011631Y025554D01*
X013986Y020116D02*
Y020325D01*
X014339Y019764D02*
Y020793D01*
X013986Y020116D02*
X014339Y019764D01*
Y019646D02*
Y019764D01*
Y020793D02*
X014411Y020865D01*
X014339Y019646D02*
X014373Y019612D01*
Y017303D02*
Y019612D01*
X015474Y015018D02*
X015605D01*
X014599Y015893D02*
X015474Y015018D01*
X014114Y015893D02*
X014599D01*
X017717Y03127D02*
X017736Y03125D01*
X018612D01*
X019341Y031979D01*
Y033396D01*
D28*
X015273Y017303D02*
D03*
X014373D02*
D03*
X01908Y017274D02*
D03*
X01998D02*
D03*
X029476Y020865D02*
D03*
X028576D02*
D03*
X029409Y017165D02*
D03*
X028509D02*
D03*
X02466Y017224D02*
D03*
X02376D02*
D03*
X024754Y020865D02*
D03*
X023854D02*
D03*
X020032D02*
D03*
X019132D02*
D03*
X015311D02*
D03*
X014411D02*
D03*
D29*
X029783Y019646D02*
D03*
X028504D02*
D03*
X025062D02*
D03*
X023782D02*
D03*
X01906D02*
D03*
X02034D02*
D03*
X014339D02*
D03*
X015618D02*
D03*
D34*
X018458Y015893D02*
D03*
Y014993D02*
D03*
X027146Y015893D02*
D03*
Y014993D02*
D03*
X022802Y015893D02*
D03*
Y014993D02*
D03*
X014114D02*
D03*
Y015893D02*
D03*
D35*
X023614Y013521D02*
D03*
X022738D02*
D03*
X019188D02*
D03*
X018312D02*
D03*
X027593D02*
D03*
X026717D02*
D03*
X015099D02*
D03*
X014223D02*
D03*
D82*
X02998Y022854D02*
X030955Y02188D01*
X028057Y022854D02*
X02998D01*
X03687Y011811D02*
Y020492D01*
Y011811D02*
X03747Y011211D01*
X031388Y030738D02*
X031654Y031004D01*
X031388Y027244D02*
Y030738D01*
Y027244D02*
X032067Y026565D01*
X038091Y014734D02*
X041516D01*
X038091D02*
X038297Y014941D01*
X03775Y014394D02*
X038091Y014734D01*
X041516D02*
X041811Y01503D01*
X042496Y016748D02*
X043248D01*
X041811Y016063D02*
X042496Y016748D01*
X041811Y01503D02*
Y016063D01*
X03747Y011211D02*
X043435D01*
X032016Y025768D02*
X032285D01*
X031416Y026368D02*
X032016Y025768D01*
X029107Y026368D02*
X031416D01*
X028466Y025727D02*
X029107Y026368D01*
X027274Y024183D02*
X027618Y023839D01*
Y023293D02*
Y023839D01*
Y023293D02*
X028057Y022854D01*
X027146Y014993D02*
X027857Y014282D01*
X023019Y014993D02*
X023789Y014222D01*
X022802Y014993D02*
X023019D01*
X018718D02*
X019468Y014242D01*
X018458Y014993D02*
X018718D01*
X014277D02*
X015175Y014094D01*
X014114Y014993D02*
X014277D01*
X038297Y014941D02*
Y017982D01*
X03749Y017736D02*
Y021565D01*
X035856Y023199D02*
X03749Y021565D01*
X035856Y023199D02*
Y025599D01*
X03489Y026565D02*
X035856Y025599D01*
X032067Y026565D02*
X03489D01*
X026417Y014173D02*
X026476Y014114D01*
X027D01*
X027593Y013521D01*
X028375Y012739D01*
Y011851D02*
Y012739D01*
X025455Y013878D02*
Y014968D01*
Y013878D02*
X025812Y013521D01*
X026717D01*
X026375Y01318D02*
X026717Y013521D01*
X026375Y011851D02*
Y01318D01*
X022087Y014124D02*
X023011D01*
X023614Y013521D01*
X024045Y01189D02*
Y01309D01*
X023614Y013521D02*
X024045Y01309D01*
X021205Y01373D02*
Y014968D01*
Y01373D02*
X021414Y013521D01*
X022738D01*
X022045Y012829D02*
X022738Y013521D01*
X022045Y01189D02*
Y012829D01*
X017657Y014134D02*
X018809D01*
X019188Y013755D01*
Y013521D02*
Y013755D01*
X019715Y011851D02*
Y012994D01*
X019188Y013521D02*
X019715Y012994D01*
X016955Y013907D02*
Y015018D01*
Y013907D02*
X017341Y013521D01*
X018312D01*
X017715Y012924D02*
X018312Y013521D01*
X017715Y011851D02*
Y012924D01*
X013425Y014163D02*
X014457D01*
X015099Y013521D01*
X012605Y016018D02*
X012701D01*
X012605Y013881D02*
Y015018D01*
Y013881D02*
X012965Y013521D01*
X014223D01*
X013385Y011811D02*
Y012683D01*
X014223Y013521D01*
X015099D02*
X015385Y013235D01*
Y011811D02*
Y013235D01*
D83*
X045876Y020413D02*
Y024833D01*
Y01167D02*
Y020413D01*
X044747Y010541D02*
X045876Y01167D01*
X027685Y010541D02*
X044747D01*
X045872Y020409D02*
X045876Y020413D01*
X043209Y020409D02*
X045872D01*
X043181Y020437D02*
X043209Y020409D01*
X040295Y020437D02*
X043181D01*
X027675Y010551D02*
X027685Y010541D01*
X026375Y011851D02*
X027675Y010551D01*
X022746D02*
X027675D01*
X019015D02*
X022746D01*
X022045Y011252D02*
X022746Y010551D01*
X022045Y011252D02*
Y01189D01*
X017715Y011851D02*
X019015Y010551D01*
X014645D02*
X019015D01*
X013385Y011811D02*
X014645Y010551D01*
D85*
X046929Y027378D02*
Y031565D01*
X047171Y027136D02*
X047618D01*
X046929Y027378D02*
X047171Y027136D01*
X046152Y032343D02*
X046929Y031565D01*
X045425Y032343D02*
X046152D01*
D86*
X037874Y026791D02*
D03*
X040827D02*
D03*
D87*
X032725Y01185D02*
D03*
X030725D02*
D03*
X028375Y011851D02*
D03*
X026375D02*
D03*
X043425Y032343D02*
D03*
X045425D02*
D03*
X024045Y01189D02*
D03*
X022045D02*
D03*
X019715Y011851D02*
D03*
X017715D02*
D03*
X015385Y011811D02*
D03*
X013385D02*
D03*
D88*
X011631Y022488D02*
D03*
Y024488D02*
D03*
D89*
X043248Y014748D02*
D03*
X040295Y016748D02*
D03*
X043209Y019409D02*
D03*
X040295Y021437D02*
D03*
D90*
X043248Y015748D02*
D03*
Y016748D02*
D03*
X040295Y015748D02*
D03*
Y014748D02*
D03*
X043209Y020409D02*
D03*
Y021409D02*
D03*
X040295Y020437D02*
D03*
Y019437D02*
D03*
D91*
X011535Y030956D02*
D03*
Y029946D02*
D03*
Y028966D02*
D03*
Y027956D02*
D03*
D92*
X038776Y0324D02*
D03*
X039776D02*
D03*
X03554D02*
D03*
X03235D02*
D03*
X0291Y032414D02*
D03*
X02585Y03245D02*
D03*
X02485D02*
D03*
X0206Y0325D02*
D03*
X0216D02*
D03*
X016352D02*
D03*
X017352D02*
D03*
D93*
X040826Y0324D02*
D03*
X03654D02*
D03*
X03335D02*
D03*
X0301Y032414D02*
D03*
X0269Y03245D02*
D03*
X02265Y0325D02*
D03*
X018402D02*
D03*
D94*
X028455Y014968D02*
D03*
X024205D02*
D03*
X019955Y015018D02*
D03*
X015605D02*
D03*
D95*
X028455Y015968D02*
D03*
X025455D02*
D03*
Y014968D02*
D03*
X024205Y015968D02*
D03*
X021205D02*
D03*
Y014968D02*
D03*
X019955Y016018D02*
D03*
X016955D02*
D03*
Y015018D02*
D03*
X015605Y016018D02*
D03*
X012605D02*
D03*
Y015018D02*
D03*
D96*
X030955Y02188D02*
D03*
X046594Y024055D02*
D03*
X046506Y024833D02*
D03*
X045187Y023986D02*
D03*
X045178Y024764D02*
D03*
X045906Y023986D02*
D03*
X045887Y024764D02*
D03*
X028466Y025727D02*
D03*
X032285Y025768D02*
D03*
X027857Y014282D02*
D03*
X023789Y014222D02*
D03*
X019468Y014242D02*
D03*
X015175Y014094D02*
D03*
X03775Y014394D02*
D03*
X038297Y017982D02*
D03*
X032067Y026565D02*
D03*
X036181Y014094D02*
D03*
X026417Y014173D02*
D03*
X022087Y014124D02*
D03*
X017657Y014134D02*
D03*
X013425Y014163D02*
D03*
X025945Y022402D02*
D03*
X027274Y024183D02*
D03*
D97*
X03687Y020492D02*
D03*
X025758Y027589D02*
D03*
X046122Y028839D02*
D03*
X046112Y029163D02*
D03*
X020896Y022667D02*
D03*
Y02301D02*
D03*
Y023354D02*
D03*
Y023697D02*
D03*
Y02404D02*
D03*
Y024383D02*
D03*
X01376Y02486D02*
D03*
X014144D02*
D03*
X014528D02*
D03*
X046457Y028839D02*
D03*
Y029173D02*
D03*
X046782Y028839D02*
D03*
Y029173D02*
D03*
X047106Y028839D02*
D03*
Y029173D02*
D03*
X047697Y027215D02*
D03*
Y026988D02*
D03*
X020896Y024726D02*
D03*
X029833Y025187D02*
D03*
X029375Y016575D02*
D03*
X023415Y025925D02*
D03*
X021535Y025689D02*
D03*
X013202Y026939D02*
D03*
X012185Y024882D02*
D03*
X022205Y03064D02*
D03*
X02034Y026467D02*
D03*
X02126Y027943D02*
D03*
X021181Y028455D02*
D03*
X012185Y026815D02*
D03*
X03749Y017736D02*
D03*
X031654Y031004D02*
D03*
X032559Y01435D02*
D03*
X043435Y011211D02*
D03*
X025315Y020945D02*
D03*
X02062D02*
D03*
X015925Y020876D02*
D03*
X01123Y021181D02*
D03*
X028002Y02063D02*
D03*
X01984Y025908D02*
D03*
X014665Y030472D02*
D03*
X019587Y03064D02*
D03*
X014636Y026949D02*
D03*
X034537Y027224D02*
D03*
X03356Y027037D02*
D03*
X023355Y020364D02*
D03*
X018729Y020285D02*
D03*
X013994Y020295D02*
D03*
X017717Y03127D02*
D03*
X019341Y033396D02*
D03*
X011201Y025984D02*
D03*
X016987D02*
D03*
D98*
X0484Y03265D02*
D03*
X048386Y010985D02*
D03*
X0109Y011D02*
D03*
Y03265D02*
D03*
M02*
