G04*
G04 #@! TF.GenerationSoftware,Altium Limited,Altium Designer,18.1.6 (161)*
G04*
G04 Layer_Color=128*
%FSTAX24Y24*%
%MOIN*%
G70*
G01*
G75*
%ADD28R,0.0500X0.0550*%
%ADD29R,0.0492X0.0728*%
%ADD34R,0.0550X0.0500*%
%ADD35R,0.0246X0.0327*%
D28*
X015273Y017303D02*
D03*
X014373D02*
D03*
X01908Y017274D02*
D03*
X01998D02*
D03*
X029476Y020865D02*
D03*
X028576D02*
D03*
X029409Y017165D02*
D03*
X028509D02*
D03*
X02466Y017224D02*
D03*
X02376D02*
D03*
X024754Y020865D02*
D03*
X023854D02*
D03*
X020032D02*
D03*
X019132D02*
D03*
X015311D02*
D03*
X014411D02*
D03*
D29*
X029783Y019646D02*
D03*
X028504D02*
D03*
X025062D02*
D03*
X023782D02*
D03*
X01906D02*
D03*
X02034D02*
D03*
X014339D02*
D03*
X015618D02*
D03*
D34*
X018458Y015893D02*
D03*
Y014993D02*
D03*
X027146Y015893D02*
D03*
Y014993D02*
D03*
X022802Y015893D02*
D03*
Y014993D02*
D03*
X014114D02*
D03*
Y015893D02*
D03*
D35*
X023614Y013521D02*
D03*
X022738D02*
D03*
X019188D02*
D03*
X018312D02*
D03*
X027593D02*
D03*
X026717D02*
D03*
X015099D02*
D03*
X014223D02*
D03*
M02*
