G04*
G04 #@! TF.GenerationSoftware,Altium Limited,Altium Designer,18.1.6 (161)*
G04*
G04 Layer_Color=16711935*
%FSTAX24Y24*%
%MOIN*%
G70*
G01*
G75*
%ADD50R,0.0580X0.0630*%
%ADD51R,0.0572X0.0808*%
%ADD56R,0.0630X0.0580*%
%ADD57R,0.0326X0.0407*%
%ADD67C,0.0710*%
%ADD68C,0.1180*%
%ADD69C,0.0830*%
%ADD70R,0.1080X0.0880*%
%ADD71O,0.1080X0.0880*%
%ADD72O,0.0830X0.0730*%
%ADD73O,0.0830X0.0980*%
%ADD74R,0.0830X0.0980*%
%ADD75R,0.0980X0.0680*%
%ADD76O,0.0980X0.0680*%
%ADD77C,0.0380*%
%ADD78C,0.0280*%
%ADD79C,0.1655*%
G36*
X046934Y023568D02*
X046919Y023583D01*
X046093D01*
Y0117D01*
X046122Y01167D01*
X045987Y011535D01*
Y011388D01*
X045879D01*
X044833Y010342D01*
Y010335D01*
X014567D01*
X013396Y011506D01*
X013346D01*
Y011575D01*
X0131Y011821D01*
X013209Y011929D01*
Y012028D01*
X013477D01*
X013992Y011513D01*
Y0115D01*
X014724Y010768D01*
X018425D01*
X017421Y011772D01*
X017402D01*
Y011978D01*
X017549Y012126D01*
X017746D01*
X019114Y010758D01*
Y010748D01*
X022303D01*
X021811Y01124D01*
Y011575D01*
X021831Y011594D01*
X021762Y011663D01*
Y012037D01*
X02187Y012146D01*
X022146D01*
X022274Y012018D01*
Y01127D01*
X022815Y010728D01*
X027175D01*
Y010748D01*
X026181Y011742D01*
Y011939D01*
X026132Y011988D01*
X02623Y012087D01*
X026437D01*
X027772Y010751D01*
Y010728D01*
X044665D01*
X045699Y011762D01*
Y020177D01*
X04564Y020236D01*
X039882D01*
X039698Y02042D01*
X039655D01*
Y020492D01*
X039764Y0206D01*
X045659D01*
Y023524D01*
X045694Y023558D01*
X044621Y023568D01*
Y025133D01*
X046934D01*
Y023568D01*
D02*
G37*
G36*
X037913Y018543D02*
X038415Y018041D01*
X038415Y014852D01*
X040148Y014852D01*
Y014882D01*
X040197D01*
X040276Y014961D01*
X040344Y014892D01*
X040344D01*
X040354Y014882D01*
X040648D01*
X040677Y014852D01*
X041467D01*
X041683Y015069D01*
Y016117D01*
X042436Y01687D01*
X04313D01*
X043199Y016939D01*
X043248Y01689D01*
Y016748D01*
X043372Y016624D01*
X042549Y016622D01*
Y016614D01*
X041948Y016013D01*
X041948Y01498D01*
X041437Y014468D01*
X04127Y014616D01*
X040502D01*
X040453Y014567D01*
X040187D01*
Y014626D01*
X03815D01*
X037933Y014409D01*
Y01438D01*
X037844D01*
X037608Y014144D01*
Y014429D01*
X038179Y015D01*
X038179Y017923D01*
X037766Y018337D01*
X037736Y018307D01*
X034301D01*
X033642Y017648D01*
X033927Y015689D01*
X033128D01*
Y016457D01*
X033386Y017734D01*
X034195Y018543D01*
X037913Y018543D01*
D02*
G37*
D50*
X015273Y017303D02*
D03*
X014373D02*
D03*
X01908Y017274D02*
D03*
X01998D02*
D03*
X029476Y020865D02*
D03*
X028576D02*
D03*
X029409Y017165D02*
D03*
X028509D02*
D03*
X02466Y017224D02*
D03*
X02376D02*
D03*
X024754Y020865D02*
D03*
X023854D02*
D03*
X020032D02*
D03*
X019132D02*
D03*
X015311D02*
D03*
X014411D02*
D03*
D51*
X029783Y019646D02*
D03*
X028504D02*
D03*
X025062D02*
D03*
X023782D02*
D03*
X01906D02*
D03*
X02034D02*
D03*
X014339D02*
D03*
X015618D02*
D03*
D56*
X018458Y015893D02*
D03*
Y014993D02*
D03*
X027146Y015893D02*
D03*
Y014993D02*
D03*
X022802Y015893D02*
D03*
Y014993D02*
D03*
X014114D02*
D03*
Y015893D02*
D03*
D57*
X023614Y013521D02*
D03*
X022738D02*
D03*
X019188D02*
D03*
X018312D02*
D03*
X027593D02*
D03*
X026717D02*
D03*
X015099D02*
D03*
X014223D02*
D03*
D67*
X037874Y026791D02*
D03*
X040827D02*
D03*
D68*
X032725Y01185D02*
D03*
X030725D02*
D03*
X028375Y011851D02*
D03*
X026375D02*
D03*
X043425Y032343D02*
D03*
X045425D02*
D03*
X024045Y01189D02*
D03*
X022045D02*
D03*
X019715Y011851D02*
D03*
X017715D02*
D03*
X015385Y011811D02*
D03*
X013385D02*
D03*
D69*
X011631Y022488D02*
D03*
Y024488D02*
D03*
D70*
X043248Y014748D02*
D03*
X040295Y016748D02*
D03*
X043209Y019409D02*
D03*
X040295Y021437D02*
D03*
D71*
X043248Y015748D02*
D03*
Y016748D02*
D03*
X040295Y015748D02*
D03*
Y014748D02*
D03*
X043209Y020409D02*
D03*
Y021409D02*
D03*
X040295Y020437D02*
D03*
Y019437D02*
D03*
D72*
X011535Y030956D02*
D03*
Y029946D02*
D03*
Y028966D02*
D03*
Y027956D02*
D03*
D73*
X038776Y0324D02*
D03*
X039776D02*
D03*
X03554D02*
D03*
X03235D02*
D03*
X0291Y032414D02*
D03*
X02585Y03245D02*
D03*
X02485D02*
D03*
X0206Y0325D02*
D03*
X0216D02*
D03*
X016352D02*
D03*
X017352D02*
D03*
D74*
X040826Y0324D02*
D03*
X03654D02*
D03*
X03335D02*
D03*
X0301Y032414D02*
D03*
X0269Y03245D02*
D03*
X02265Y0325D02*
D03*
X018402D02*
D03*
D75*
X028455Y014968D02*
D03*
X024205D02*
D03*
X019955Y015018D02*
D03*
X015605D02*
D03*
D76*
X028455Y015968D02*
D03*
X025455D02*
D03*
Y014968D02*
D03*
X024205Y015968D02*
D03*
X021205D02*
D03*
Y014968D02*
D03*
X019955Y016018D02*
D03*
X016955D02*
D03*
Y015018D02*
D03*
X015605Y016018D02*
D03*
X012605D02*
D03*
Y015018D02*
D03*
D77*
X030955Y02188D02*
D03*
X046594Y024055D02*
D03*
X046506Y024833D02*
D03*
X045187Y023986D02*
D03*
X045178Y024764D02*
D03*
X045906Y023986D02*
D03*
X045887Y024764D02*
D03*
X028466Y025727D02*
D03*
X032285Y025768D02*
D03*
X027857Y014282D02*
D03*
X023789Y014222D02*
D03*
X019468Y014242D02*
D03*
X015175Y014094D02*
D03*
X03775Y014394D02*
D03*
X038297Y017982D02*
D03*
X032067Y026565D02*
D03*
X036181Y014094D02*
D03*
X026417Y014173D02*
D03*
X022087Y014124D02*
D03*
X017657Y014134D02*
D03*
X013425Y014163D02*
D03*
X025945Y022402D02*
D03*
X027274Y024183D02*
D03*
D78*
X03687Y020492D02*
D03*
X025758Y027589D02*
D03*
X046122Y028839D02*
D03*
X046112Y029163D02*
D03*
X020896Y022667D02*
D03*
Y02301D02*
D03*
Y023354D02*
D03*
Y023697D02*
D03*
Y02404D02*
D03*
Y024383D02*
D03*
X01376Y02486D02*
D03*
X014144D02*
D03*
X014528D02*
D03*
X046457Y028839D02*
D03*
Y029173D02*
D03*
X046782Y028839D02*
D03*
Y029173D02*
D03*
X047106Y028839D02*
D03*
Y029173D02*
D03*
X047697Y027215D02*
D03*
Y026988D02*
D03*
X020896Y024726D02*
D03*
X029833Y025187D02*
D03*
X029375Y016575D02*
D03*
X023415Y025925D02*
D03*
X021535Y025689D02*
D03*
X013202Y026939D02*
D03*
X012185Y024882D02*
D03*
X022205Y03064D02*
D03*
X02034Y026467D02*
D03*
X02126Y027943D02*
D03*
X021181Y028455D02*
D03*
X012185Y026815D02*
D03*
X03749Y017736D02*
D03*
X031654Y031004D02*
D03*
X032559Y01435D02*
D03*
X043435Y011211D02*
D03*
X025315Y020945D02*
D03*
X02062D02*
D03*
X015925Y020876D02*
D03*
X01123Y021181D02*
D03*
X028002Y02063D02*
D03*
X01984Y025908D02*
D03*
X014665Y030472D02*
D03*
X019587Y03064D02*
D03*
X014636Y026949D02*
D03*
X034537Y027224D02*
D03*
X03356Y027037D02*
D03*
X023355Y020364D02*
D03*
X018729Y020285D02*
D03*
X013994Y020295D02*
D03*
X017717Y03127D02*
D03*
X019341Y033396D02*
D03*
X011201Y025984D02*
D03*
X016987D02*
D03*
D79*
X0484Y03265D02*
D03*
X048386Y010985D02*
D03*
X0109Y011D02*
D03*
Y03265D02*
D03*
M02*
