G04*
G04 #@! TF.GenerationSoftware,Altium Limited,Altium Designer,18.1.6 (161)*
G04*
G04 Layer_Color=128*
%FSTAX24Y24*%
%MOIN*%
G70*
G01*
G75*
%ADD102C,0.0020*%
D102*
X037707Y026791D02*
X038041D01*
X037874Y026624D02*
Y026959D01*
X040659Y026791D02*
X040994D01*
X040827Y026624D02*
Y026959D01*
X032475Y01185D02*
X032975D01*
X032725Y0116D02*
Y0121D01*
X030475Y01185D02*
X030975D01*
X030725Y0116D02*
Y0121D01*
X011476Y022488D02*
X011786D01*
X011631Y022333D02*
Y022643D01*
X011476Y024488D02*
X011786D01*
X011631Y024333D02*
Y024643D01*
X043053Y014748D02*
X043443D01*
X043248Y014553D02*
Y014943D01*
X043053Y015748D02*
X043443D01*
X043248Y015553D02*
Y015943D01*
X043053Y016748D02*
X043443D01*
X043248Y016553D02*
Y016943D01*
X0401Y016748D02*
X04049D01*
X040295Y016553D02*
Y016943D01*
X0401Y015748D02*
X04049D01*
X040295Y015553D02*
Y015943D01*
X0401Y014748D02*
X04049D01*
X040295Y014553D02*
Y014943D01*
X043014Y019409D02*
X043404D01*
X043209Y019214D02*
Y019604D01*
X043014Y020409D02*
X043404D01*
X043209Y020214D02*
Y020604D01*
X043014Y021409D02*
X043404D01*
X043209Y021214D02*
Y021604D01*
X0401Y021437D02*
X04049D01*
X040295Y021242D02*
Y021632D01*
X0401Y020437D02*
X04049D01*
X040295Y020242D02*
Y020632D01*
X0401Y019437D02*
X04049D01*
X040295Y019242D02*
Y019632D01*
X011355Y030956D02*
X011715D01*
X011535Y030776D02*
Y031136D01*
X011355Y029946D02*
X011715D01*
X011535Y029766D02*
Y030126D01*
X011355Y028966D02*
X011715D01*
X011535Y028786D02*
Y029146D01*
X011355Y027956D02*
X011715D01*
X011535Y027776D02*
Y028136D01*
X038606Y0324D02*
X038946D01*
X038776Y03223D02*
Y03257D01*
X039606Y0324D02*
X039946D01*
X039776Y03223D02*
Y03257D01*
X040656Y0324D02*
X040996D01*
X040826Y03223D02*
Y03257D01*
X03537Y0324D02*
X03571D01*
X03554Y03223D02*
Y03257D01*
X03637Y0324D02*
X03671D01*
X03654Y03223D02*
Y03257D01*
X03218Y0324D02*
X03252D01*
X03235Y03223D02*
Y03257D01*
X03318Y0324D02*
X03352D01*
X03335Y03223D02*
Y03257D01*
X02893Y032414D02*
X02927D01*
X0291Y032244D02*
Y032584D01*
X02993Y032414D02*
X03027D01*
X0301Y032244D02*
Y032584D01*
X02673Y03245D02*
X02707D01*
X0269Y03228D02*
Y03262D01*
X02568Y03245D02*
X02602D01*
X02585Y03228D02*
Y03262D01*
X02468Y03245D02*
X02502D01*
X02485Y03228D02*
Y03262D01*
X02043Y0325D02*
X02077D01*
X0206Y03233D02*
Y03267D01*
X02143Y0325D02*
X02177D01*
X0216Y03233D02*
Y03267D01*
X02248Y0325D02*
X02282D01*
X02265Y03233D02*
Y03267D01*
X028125Y011851D02*
X028625D01*
X028375Y011601D02*
Y012101D01*
X026125Y011851D02*
X026625D01*
X026375Y011601D02*
Y012101D01*
X016182Y0325D02*
X016522D01*
X016352Y03233D02*
Y03267D01*
X017182Y0325D02*
X017522D01*
X017352Y03233D02*
Y03267D01*
X018232Y0325D02*
X018572D01*
X018402Y03233D02*
Y03267D01*
X043175Y032343D02*
X043675D01*
X043425Y032093D02*
Y032593D01*
X045175Y032343D02*
X045675D01*
X045425Y032093D02*
Y032593D01*
X0283Y014968D02*
X02861D01*
X028455Y014813D02*
Y015123D01*
X0283Y015968D02*
X02861D01*
X028455Y015813D02*
Y016123D01*
X0253Y015968D02*
X02561D01*
X025455Y015813D02*
Y016123D01*
X0253Y014968D02*
X02561D01*
X025455Y014813D02*
Y015123D01*
X02405Y014968D02*
X02436D01*
X024205Y014813D02*
Y015123D01*
X02405Y015968D02*
X02436D01*
X024205Y015813D02*
Y016123D01*
X02105Y015968D02*
X02136D01*
X021205Y015813D02*
Y016123D01*
X02105Y014968D02*
X02136D01*
X021205Y014813D02*
Y015123D01*
X0198Y015018D02*
X02011D01*
X019955Y014863D02*
Y015173D01*
X0198Y016018D02*
X02011D01*
X019955Y015863D02*
Y016173D01*
X0168Y016018D02*
X01711D01*
X016955Y015863D02*
Y016173D01*
X0168Y015018D02*
X01711D01*
X016955Y014863D02*
Y015173D01*
X023795Y01189D02*
X024295D01*
X024045Y01164D02*
Y01214D01*
X021795Y01189D02*
X022295D01*
X022045Y01164D02*
Y01214D01*
X019465Y011851D02*
X019965D01*
X019715Y011601D02*
Y012101D01*
X017465Y011851D02*
X017965D01*
X017715Y011601D02*
Y012101D01*
X01545Y015018D02*
X01576D01*
X015605Y014863D02*
Y015173D01*
X01545Y016018D02*
X01576D01*
X015605Y015863D02*
Y016173D01*
X01245Y016018D02*
X01276D01*
X012605Y015863D02*
Y016173D01*
X01245Y015018D02*
X01276D01*
X012605Y014863D02*
Y015173D01*
X015135Y011811D02*
X015635D01*
X015385Y011561D02*
Y012061D01*
X013135Y011811D02*
X013635D01*
X013385Y011561D02*
Y012061D01*
X03088Y02188D02*
X03103D01*
X030955Y021805D02*
Y021955D01*
X03682Y020492D02*
X03692D01*
X03687Y020442D02*
Y020542D01*
X046519Y024055D02*
X046669D01*
X046594Y02398D02*
Y02413D01*
X046431Y024833D02*
X046581D01*
X046506Y024758D02*
Y024908D01*
X025708Y027589D02*
X025808D01*
X025758Y027539D02*
Y027639D01*
X046072Y028839D02*
X046172D01*
X046122Y028789D02*
Y028889D01*
X046062Y029163D02*
X046162D01*
X046112Y029113D02*
Y029213D01*
X020846Y022667D02*
X020946D01*
X020896Y022617D02*
Y022717D01*
X020846Y02301D02*
X020946D01*
X020896Y022961D02*
Y023061D01*
X020846Y023354D02*
X020946D01*
X020896Y023304D02*
Y023404D01*
X020846Y023697D02*
X020946D01*
X020896Y023647D02*
Y023747D01*
X020846Y02404D02*
X020946D01*
X020896Y02399D02*
Y02409D01*
X020846Y024383D02*
X020946D01*
X020896Y024333D02*
Y024433D01*
X01371Y02486D02*
X01381D01*
X01376Y02481D02*
Y02491D01*
X014094Y02486D02*
X014194D01*
X014144Y02481D02*
Y02491D01*
X014478Y02486D02*
X014578D01*
X014528Y02481D02*
Y02491D01*
X046407Y028839D02*
X046507D01*
X046457Y028789D02*
Y028889D01*
X046407Y029173D02*
X046507D01*
X046457Y029123D02*
Y029223D01*
X046732Y028839D02*
X046831D01*
X046782Y028789D02*
Y028889D01*
X046732Y029173D02*
X046831D01*
X046782Y029123D02*
Y029223D01*
X047056Y028839D02*
X047156D01*
X047106Y028789D02*
Y028889D01*
X047056Y029173D02*
X047156D01*
X047106Y029123D02*
Y029223D01*
X045112Y023986D02*
X045262D01*
X045187Y023911D02*
Y024061D01*
X045103Y024764D02*
X045253D01*
X045178Y024689D02*
Y024839D01*
X045831Y023986D02*
X045981D01*
X045906Y023911D02*
Y024061D01*
X045812Y024764D02*
X045962D01*
X045887Y024689D02*
Y024839D01*
X047647Y027215D02*
X047747D01*
X047697Y027165D02*
Y027265D01*
X047647Y026988D02*
X047747D01*
X047697Y026938D02*
Y027038D01*
X020846Y024726D02*
X020946D01*
X020896Y024676D02*
Y024776D01*
X029783Y025187D02*
X029883D01*
X029833Y025137D02*
Y025237D01*
X029325Y016575D02*
X029425D01*
X029375Y016525D02*
Y016625D01*
X023365Y025925D02*
X023465D01*
X023415Y025875D02*
Y025975D01*
X021485Y025689D02*
X021585D01*
X021535Y025639D02*
Y025739D01*
X013152Y026939D02*
X013252D01*
X013202Y026889D02*
Y026989D01*
X012135Y024882D02*
X012235D01*
X012185Y024832D02*
Y024932D01*
X022155Y03064D02*
X022255D01*
X022205Y03059D02*
Y03069D01*
X02029Y026467D02*
X02039D01*
X02034Y026417D02*
Y026517D01*
X02121Y027943D02*
X02131D01*
X02126Y027893D02*
Y027993D01*
X021131Y028455D02*
X021231D01*
X021181Y028405D02*
Y028505D01*
X028391Y025727D02*
X028541D01*
X028466Y025652D02*
Y025802D01*
X03221Y025768D02*
X03236D01*
X032285Y025693D02*
Y025843D01*
X012135Y026815D02*
X012235D01*
X012185Y026765D02*
Y026865D01*
X027782Y014282D02*
X027932D01*
X027857Y014207D02*
Y014356D01*
X023714Y014222D02*
X023864D01*
X023789Y014147D02*
Y014297D01*
X019394Y014242D02*
X019543D01*
X019468Y014167D02*
Y014317D01*
X0151Y014094D02*
X01525D01*
X015175Y014019D02*
Y014169D01*
X037675Y014394D02*
X037825D01*
X03775Y014319D02*
Y014469D01*
X038222Y017982D02*
X038372D01*
X038297Y017907D02*
Y018057D01*
X03744Y017736D02*
X03754D01*
X03749Y017686D02*
Y017786D01*
X031992Y026565D02*
X032142D01*
X032067Y02649D02*
Y02664D01*
X031604Y031004D02*
X031704D01*
X031654Y030954D02*
Y031054D01*
X032509Y01435D02*
X032609D01*
X032559Y0143D02*
Y0144D01*
X036106Y014094D02*
X036256D01*
X036181Y014019D02*
Y014169D01*
X043385Y011211D02*
X043485D01*
X043435Y011161D02*
Y011261D01*
X025265Y020945D02*
X025365D01*
X025315Y020895D02*
Y020995D01*
X02057Y020945D02*
X02067D01*
X02062Y020895D02*
Y020995D01*
X015875Y020876D02*
X015975D01*
X015925Y020826D02*
Y020926D01*
X01118Y021181D02*
X01128D01*
X01123Y021131D02*
Y021231D01*
X027952Y02063D02*
X028052D01*
X028002Y02058D02*
Y02068D01*
X01979Y025908D02*
X01989D01*
X01984Y025858D02*
Y025958D01*
X014615Y030472D02*
X014715D01*
X014665Y030422D02*
Y030522D01*
X019537Y03064D02*
X019637D01*
X019587Y03059D02*
Y03069D01*
X014586Y026949D02*
X014686D01*
X014636Y026899D02*
Y026999D01*
X034487Y027224D02*
X034587D01*
X034537Y027174D02*
Y027274D01*
X03351Y027037D02*
X03361D01*
X03356Y026987D02*
Y027087D01*
X026342Y014173D02*
X026492D01*
X026417Y014098D02*
Y014248D01*
X022012Y014124D02*
X022162D01*
X022087Y014049D02*
Y014199D01*
X023305Y020364D02*
X023405D01*
X023355Y020314D02*
Y020414D01*
X018679Y020285D02*
X018779D01*
X018729Y020235D02*
Y020335D01*
X013944Y020295D02*
X014044D01*
X013994Y020245D02*
Y020345D01*
X017582Y014134D02*
X017732D01*
X017657Y014059D02*
Y014209D01*
X01335Y014163D02*
X0135D01*
X013425Y014088D02*
Y014238D01*
X017667Y03127D02*
X017767D01*
X017717Y03122D02*
Y03132D01*
X019291Y033396D02*
X019391D01*
X019341Y033346D02*
Y033446D01*
X011151Y025984D02*
X011251D01*
X011201Y025934D02*
Y026034D01*
X016937Y025984D02*
X017037D01*
X016987Y025934D02*
Y026034D01*
X02587Y022402D02*
X02602D01*
X025945Y022327D02*
Y022477D01*
X027199Y024183D02*
X027349D01*
X027274Y024108D02*
Y024258D01*
X047711Y03265D02*
X049089D01*
X0484Y031961D02*
Y033339D01*
X047697Y010985D02*
X049075D01*
X048386Y010296D02*
Y011674D01*
X010211Y011D02*
X011589D01*
X0109Y010311D02*
Y011689D01*
X010211Y03265D02*
X011589D01*
X0109Y031961D02*
Y033339D01*
M02*
