M48
;Layer_Color=9474304
;FILE_FORMAT=2:4
INCH,LZ
;TYPE=PLATED
T1F00S00C0.0100
T2F00S00C0.0150
T3F00S00C0.0310
T4F00S00C0.0335
T5F00S00C0.0340
T6F00S00C0.0360
T7F00S00C0.0390
T8F00S00C0.0500
T9F00S00C0.1378
%
T01
X032559Y01435
X043435Y011211
X047697Y026988
Y027215
X047106Y028839
Y029173
X046782
X046457
Y028839
X046782
X046122
X046112Y029163
X034537Y027224
X03356Y027037
X031654Y031004
X03687Y020492
X03749Y017736
X029375Y016575
X028002Y02063
X025315Y020945
X023355Y020364
X02062Y020945
X020896Y022667
Y02301
Y023354
Y023697
Y02404
Y024383
Y024726
X021535Y025689
X01984Y025908
X02034Y026467
X02126Y027943
X021181Y028455
X022205Y03064
X019587
X016987Y025984
X015925Y020876
X018729Y020285
X023415Y025925
X025758Y027589
X029833Y025187
X014528Y02486
X014144
X01376
X012185Y024882
Y026815
X013202Y026939
X014636Y026949
X014665Y030472
X011201Y025984
X01123Y021181
X013994Y020295
X017717Y03127
X019341Y033396
T02
X013425Y014163
X015175Y014094
X017657Y014134
X019468Y014242
X022087Y014124
X023789Y014222
X026417Y014173
X027857Y014282
X036181Y014094
X03775Y014394
X038297Y017982
X045187Y023986
X045906
X046594Y024055
X046506Y024833
X045887Y024764
X045178
X032285Y025768
X032067Y026565
X028466Y025727
X027274Y024183
X025945Y022402
X030955Y02188
T03
X012605Y015018
X015605
X016955
X019955
X021205Y014968
X024205
X025455
X028455
Y015968
X025455
X024205
X021205
X019955Y016018
X016955
X015605
X012605
X011631Y022488
Y024488
T04
X037874Y026791
X040827
T05
X016352Y0325
X017352
X018402
X0206
X0216
X02265
X02485Y03245
X02585
X0269
X0291Y032414
X0301
X03235Y0324
X03335
X03554
X03654
X038776
X039776
X040826
T06
X011535Y027956
Y028966
Y029946
Y030956
T07
X040295Y014748
X043248
Y015748
Y016748
X043209Y019409
Y020409
Y021409
X040295Y021437
Y020437
Y019437
Y016748
Y015748
T08
X013385Y011811
X015385
X017715Y011851
X019715
X022045Y01189
X024045
X026375Y011851
X028375
X030725Y01185
X032725
X043425Y032343
X045425
T09
X0109Y011
X048386Y010985
X0109Y03265
X0484
M30
