G04*
G04 #@! TF.GenerationSoftware,Altium Limited,Altium Designer,18.1.6 (161)*
G04*
G04 Layer_Color=16711935*
%FSTAX24Y24*%
%MOIN*%
G70*
G01*
G75*
%ADD10C,0.0079*%
%ADD11C,0.0050*%
%ADD13C,0.0100*%
%ADD100C,0.0039*%
D10*
X015704Y026041D02*
G03*
X015704Y026041I-000059J0D01*
G01*
X034344Y014604D02*
G03*
X034344Y014604I-000039J0D01*
G01*
X027643Y021657D02*
G03*
X027643Y021657I-000039J0D01*
G01*
X022959D02*
G03*
X022959Y021657I-000039J0D01*
G01*
X018275Y021592D02*
G03*
X018275Y021592I-000039J0D01*
G01*
X013591Y021513D02*
G03*
X013591Y021513I-000039J0D01*
G01*
X042205Y023616D02*
G03*
X042205Y023616I-000039J0D01*
G01*
D11*
X048809Y028996D02*
G03*
X048809Y028996I-00124J0D01*
G01*
X015389Y026986D02*
X018224D01*
Y029821D01*
X015389D02*
X018224D01*
X015389Y026986D02*
Y029821D01*
X04627Y030295D02*
X048868D01*
X04627Y027697D02*
Y030295D01*
Y027697D02*
X048868D01*
Y030295D01*
X019715Y02247D02*
Y02436D01*
X015226D02*
X019715D01*
X015226Y02247D02*
Y02436D01*
Y02247D02*
X019715D01*
X031768Y014606D02*
X033343D01*
X031768Y016575D02*
X033343D01*
Y014606D02*
Y016575D01*
X031768Y014606D02*
Y016575D01*
X025375Y017517D02*
X028028D01*
X025375D02*
Y019966D01*
X028028D01*
Y017517D02*
Y019966D01*
X020691Y017517D02*
X023344D01*
X020691D02*
Y019966D01*
X023344D01*
Y017517D02*
Y019966D01*
X016007Y017451D02*
X01866D01*
X016007D02*
Y0199D01*
X01866D01*
Y017451D02*
Y0199D01*
X011323Y017372D02*
X013976D01*
X011323D02*
Y019821D01*
X013976D01*
Y017372D02*
Y019821D01*
X026049Y027978D02*
Y029443D01*
X028695D01*
Y027978D02*
Y029443D01*
X026049Y027978D02*
X028695D01*
X041504Y026004D02*
X045504D01*
X041504D02*
Y029929D01*
X045504D01*
Y026004D02*
Y029929D01*
D13*
X035955Y025531D02*
X037372D01*
X035955Y023799D02*
X037372D01*
D100*
X032067Y024587D02*
G03*
X032067Y024587I-000197J0D01*
G01*
X025335D02*
G03*
X025335Y024587I-000197J0D01*
G01*
X037116Y012126D02*
Y012795D01*
X038573Y012126D02*
Y012795D01*
X037116D02*
X038573D01*
X037116Y012126D02*
X038573D01*
X032018Y02998D02*
Y030551D01*
X032884Y02998D02*
Y030551D01*
X032018D02*
X032884D01*
X032018Y02998D02*
X032884D01*
X045062Y011053D02*
Y011722D01*
X046519Y011053D02*
Y011722D01*
X045062D02*
X046519D01*
X045062Y011053D02*
X046519D01*
X047559Y025738D02*
Y026309D01*
X048425Y025738D02*
Y026309D01*
X047559D02*
X048425D01*
X047559Y025738D02*
X048425D01*
X033287Y019055D02*
X033957D01*
X033287Y020512D02*
X033957D01*
X033287Y019055D02*
Y020512D01*
X033957Y019055D02*
Y020512D01*
X033856Y026014D02*
X034564D01*
X033856Y025482D02*
X034564D01*
X033856D02*
Y026014D01*
X034564Y025482D02*
Y026014D01*
X047202Y021123D02*
Y021792D01*
X048659Y021123D02*
Y021792D01*
X047202D02*
X048659D01*
X047202Y021123D02*
X048659D01*
X031516Y023012D02*
X033051D01*
X031516Y024941D02*
X033051D01*
Y023012D02*
Y024941D01*
X031516Y023012D02*
Y024941D01*
X029872Y019311D02*
Y01998D01*
X028415Y019311D02*
Y01998D01*
X029872D01*
X028415Y019311D02*
X029872D01*
X02515D02*
Y01998D01*
X023694Y019311D02*
Y01998D01*
X02515D01*
X023694Y019311D02*
X02515D01*
X033799Y029186D02*
Y030053D01*
X033228Y029186D02*
Y030053D01*
X033799D01*
X033228Y029186D02*
X033799D01*
X047559Y02685D02*
X048425D01*
X047559Y027421D02*
X048425D01*
Y02685D02*
Y027421D01*
X047559Y02685D02*
Y027421D01*
X027756Y025461D02*
Y025993D01*
X027047Y025461D02*
Y025993D01*
Y025461D02*
X027756D01*
X027047Y025993D02*
X027756D01*
X02353Y013256D02*
Y013787D01*
X022821Y013256D02*
Y013787D01*
X02353D01*
X022821Y013256D02*
X02353D01*
X019105D02*
Y013787D01*
X018396Y013256D02*
Y013787D01*
X019105D01*
X018396Y013256D02*
X019105D01*
X018972Y019311D02*
X020429D01*
X018972Y01998D02*
X020429D01*
X018972Y019311D02*
Y01998D01*
X020429Y019311D02*
Y01998D01*
X01425Y019311D02*
X015707D01*
X01425Y01998D02*
X015707D01*
X01425Y019311D02*
Y01998D01*
X015707Y019311D02*
Y01998D01*
X027509Y013256D02*
Y013787D01*
X0268Y013256D02*
Y013787D01*
X027509D01*
X0268Y013256D02*
X027509D01*
X015016D02*
Y013787D01*
X014307Y013256D02*
Y013787D01*
X015016D01*
X014307Y013256D02*
X015016D01*
X024783Y023012D02*
Y024941D01*
X026319Y023012D02*
Y024941D01*
X024783D02*
X026319D01*
X024783Y023012D02*
X026319D01*
M02*
